<?xml version="1.0" encoding="UTF-8" standalone="no"?>
<!-- Created with Inkscape (http://www.inkscape.org/) -->

<svg
   width="297mm"
   height="210mm"
   viewBox="0 0 297 210"
   version="1.1"
   id="svg5"
   inkscape:version="1.1 (c68e22c387, 2021-05-23)"
   sodipodi:docname="animals3.svg"
   xmlns:inkscape="http://www.inkscape.org/namespaces/inkscape"
   xmlns:sodipodi="http://sodipodi.sourceforge.net/DTD/sodipodi-0.dtd"
   xmlns:xlink="http://www.w3.org/1999/xlink"
   xmlns="http://www.w3.org/2000/svg"
   xmlns:svg="http://www.w3.org/2000/svg">
  <sodipodi:namedview
     id="namedview7"
     pagecolor="#ffffff"
     bordercolor="#666666"
     borderopacity="1.0"
     inkscape:pageshadow="2"
     inkscape:pageopacity="0.0"
     inkscape:pagecheckerboard="0"
     inkscape:document-units="mm"
     showgrid="false"
     inkscape:zoom="0.70014387"
     inkscape:cx="310.65044"
     inkscape:cy="200.67304"
     inkscape:window-width="1920"
     inkscape:window-height="1017"
     inkscape:window-x="-8"
     inkscape:window-y="-8"
     inkscape:window-maximized="1"
     inkscape:current-layer="layer2"
     showguides="false" />
  <defs
     id="defs2" />
  <g
     inkscape:groupmode="layer"
     id="layer4"
     inkscape:label="Photo"
     style="display:inline"
     sodipodi:insensitive="true" />
  <g
     inkscape:groupmode="layer"
     id="layer2"
     inkscape:label="Cut"
     style="display:inline">
    <g
       id="g124160"
       transform="rotate(5.2854855,-858.54125,42.626727)"
       inkscape:label="gOctopus">
      <path
         style="fill:none;stroke:#ff0000;stroke-width:0.264583px;stroke-linecap:butt;stroke-linejoin:miter;stroke-opacity:1"
         d="m 250.11287,54.110958 c 2.00411,2.004108 1.8705,0.267213 4.00822,0.267213 2.13772,0 2.80575,0.801646 3.60739,-0.668035"
         id="path6995" />
      <ellipse
         style="opacity:0.931727;fill:none;fill-opacity:1;stroke:#ff0000;stroke-width:0.211667;stroke-linecap:round;stroke-linejoin:round;stroke-miterlimit:4;stroke-dasharray:none"
         id="path6760"
         cx="260.46753"
         cy="66.781593"
         rx="2.1377168"
         ry="3.0729678"
         transform="rotate(-2.8582755)" />
      <ellipse
         style="opacity:0.931727;fill:none;fill-opacity:1;stroke:#ff0000;stroke-width:0.211667;stroke-linecap:round;stroke-linejoin:round;stroke-miterlimit:4;stroke-dasharray:none"
         id="path6758"
         cx="231.26083"
         cy="98.175926"
         rx="1.9373059"
         ry="3.2065754"
         transform="rotate(-10.314976)" />
      <path
         style="fill:none;stroke:#000000;stroke-width:0.264583px;stroke-linecap:butt;stroke-linejoin:miter;stroke-opacity:1"
         d="m 238.35543,79.763558 c -7.28161,6.346348 -14.22918,8.61767 -18.3042,2.53854 -3.84045,-5.729192 2.67214,-10.421369 5.74511,-1.336072"
         id="path6734"
         sodipodi:nodetypes="csc" />
      <path
         style="fill:none;stroke:#000000;stroke-width:0.264583px;stroke-linecap:butt;stroke-linejoin:miter;stroke-opacity:1"
         d="m 238.35543,71.079084 c -5.61151,4.40904 -6.81398,8.550867 -12.55909,9.886942"
         id="path6732"
         sodipodi:nodetypes="cc" />
      <path
         style="fill:none;stroke:#ff0000;stroke-width:0.264583px;stroke-linecap:butt;stroke-linejoin:miter;stroke-opacity:1"
         d="m 243.69972,76.156163 c 6.01233,-1.336075 11.0894,5.878721 14.16237,7.214793 3.07297,1.336074 7.08118,-3.072969 7.08118,-3.072969"
         id="path6730" />
      <path
         style="fill:none;stroke:#000000;stroke-width:0.264583px;stroke-linecap:butt;stroke-linejoin:miter;stroke-opacity:1"
         d="m 261.20228,77.492235 c -6.54676,-0.267214 -6.81398,-4.409041 -11.62384,-4.141828 -4.80986,0.267216 -12.29187,8.150048 -5.34429,6.012331 6.94758,-2.137717 4.94346,3.607395 8.15004,6.012326 3.20658,2.404932 9.35252,2.939356 14.83042,-2.404933"
         id="path6728" />
      <path
         style="fill:none;stroke:#000000;stroke-width:0.264583px;stroke-linecap:butt;stroke-linejoin:miter;stroke-opacity:1"
         d="m 244.10054,69.743012 c -3.07297,7.081187 -9.61973,13.227121 -8.95169,20.976347 0.66804,7.749222 6.76662,11.138451 12.69269,9.352511 4.87667,-1.469682 4.67626,-6.279545 2.93936,-8.417262 -1.73689,-2.137717 -2.67214,-0.935249 -2.53853,1.736897 0.1336,2.672146 -4.67626,3.607395 -3.74101,-1.469681 0.93525,-5.077077 5.61151,-3.741005 7.88283,-6.546758"
         id="path6726"
         sodipodi:nodetypes="csssssc" />
      <path
         style="fill:none;stroke:#000000;stroke-width:0.264583px;stroke-linecap:butt;stroke-linejoin:miter;stroke-opacity:1"
         d="m 276.2999,81.366846 c 7.88284,7.081187 4.00842,13.10529 -0.33403,13.360729 -5.67831,0.33402 -6.74715,-6.413149 -3.00615,-4.542646 3.741,1.870501 4.94348,-1.736894 0.66802,-3.206575 -4.27543,-1.469681 -6.41313,-4.008221 -6.41313,-4.008221"
         id="path6724"
         sodipodi:nodetypes="csssc" />
      <path
         style="fill:none;stroke:#000000;stroke-width:0.264583px;stroke-linecap:butt;stroke-linejoin:miter;stroke-opacity:1"
         d="m 233.81278,65.333972 c -6.68037,-0.534429 -6.21274,4.342236 -9.95375,7.081186 -3.53126,2.585382 -6.69837,3.657502 -8.61767,0.40082 -2.29795,-3.899171 7.08119,-2.738948 2.67215,-5.210683 -4.22298,-2.367431 -9.55292,1.736895 -7.74922,7.214793 1.85465,5.632631 6.27954,7.48201 9.88694,7.48201"
         id="path6722"
         sodipodi:nodetypes="cssssc" />
      <path
         style="fill:none;stroke:#000000;stroke-width:0.264583px;stroke-linecap:butt;stroke-linejoin:miter;stroke-opacity:1"
         d="m 230.6062,56.248675 c -9.48612,-4.409043 -14.16237,-1.336074 -16.70091,1.336072 -2.53854,2.672146 -0.40082,8.150045 3.20658,7.615615 3.60739,-0.534429 2.53854,-1.8705 0.40082,-2.805752 -2.13772,-0.935252 0.53443,-3.741005 4.14182,0.801645 3.6074,4.542647 6.14594,4.40904 6.14594,4.40904"
         id="path6720" />
      <path
         style="fill:none;stroke:#000000;stroke-width:0.264583px;stroke-linecap:butt;stroke-linejoin:miter;stroke-opacity:1"
         d="m 264.00803,63.864291 c 7.74921,-1.068859 9.35251,3.473788 13.22712,6.41315 3.87461,2.93936 6.82353,3.571319 10.02056,2.137717 3.83951,-1.721701 1.46966,-4.542649 -2e-5,-4.409043 -1.46968,0.13361 -3.13977,-0.601233 -0.40082,-2.004107 3.77736,-1.934745 6.94757,2.939361 6.01232,6.413149 -1.01267,3.761353 -4.40902,8.01644 -10.55495,8.951689 -6.14595,0.935252 -9.48614,0.133607 -13.76156,-3.340182 -3.59357,-2.919787 -6.68037,-8.417261 -9.88694,-8.417261"
         id="path5336"
         sodipodi:nodetypes="csssssssc" />
      <path
         style="fill:none;stroke:#000000;stroke-width:0.264583px;stroke-linecap:butt;stroke-linejoin:miter;stroke-opacity:1"
         d="m 273.22692,49.835524 c 6.14595,-5.077079 10.02057,-4.275433 12.95991,10e-7 2.93936,4.275434 0.93527,8.150044 -2.00409,9.619725 -2.93937,1.469679 -4.40907,0.668035 -2.27134,-2.672147 2.13773,-3.340182 -0.66803,-6.145937 -3.60741,-2.404931 -2.52,3.207265 -1.06884,4.94347 -2.53852,8.150045 -1.15838,2.527384 -2.60534,3.908015 -2.60534,3.908015"
         id="path5334"
         sodipodi:nodetypes="csssssc" />
      <path
         id="path2988"
         style="fill:none;stroke:#ff0000;stroke-width:0.999999px;stroke-linecap:butt;stroke-linejoin:miter;stroke-opacity:1"
         d="m 977.54424,369.8918 c -7.79144,24.60695 -20.5662,30.39723 -24.45235,51.78466"
         transform="matrix(0.26345834,-0.02437298,0.02437298,0.26345834,6.6387294,-23.866602)" />
      <path
         id="path9838"
         style="fill:none;stroke:#000000;stroke-width:0.999999px;stroke-linecap:butt;stroke-linejoin:miter;stroke-opacity:1"
         d="m 812.89148,378.30264 c -0.70445,-1.04299 -1.3914,-2.12351 -2.04599,-3.25612 -7.43164,-12.85861 -22.25263,-27.27769 -15.53661,-62.29278 7.83702,-40.85954 60.82639,-70.94929 106.90025,-64.6584 46.0739,6.29089 84.03836,47.84202 80.91498,90.14757 -0.98988,13.40762 -3.01483,23.54794 -5.57987,31.64889"
         transform="matrix(0.26345834,-0.02437298,0.02437298,0.26345834,6.6387294,-23.866602)" />
      <path
         id="path9533"
         style="fill:none;stroke:#ff0000;stroke-width:0.999999px;stroke-linecap:butt;stroke-linejoin:miter;stroke-opacity:1"
         d="m 823.90342,414.79633 c 5.44992,-18.91914 -3.71874,-25.69544 -11.01194,-36.49367"
         transform="matrix(0.26345834,-0.02437298,0.02437298,0.26345834,6.6387294,-23.866602)" />
    </g>
    <g
       id="g8577"
       inkscape:label="gSpringer"
       transform="matrix(0.50588725,0,0,0.50588725,-159.89733,98.213486)">
      <path
         style="display:inline;fill:none;stroke:#000000;stroke-width:0.264583px;stroke-linecap:butt;stroke-linejoin:miter;stroke-opacity:1"
         d="m 365.36437,136.17638 c 0.38404,11.06001 -0.84634,23.40076 -0.23189,32.23341 0.61444,8.83264 0.48219,11.7302 3.17252,17.30593 2.43715,5.05102 1.49242,10.1373 1.49242,10.1373"
         id="path4244"
         sodipodi:nodetypes="cssc" />
      <path
         style="fill:none;stroke:#000000;stroke-width:0.264583px;stroke-linecap:butt;stroke-linejoin:miter;stroke-opacity:1"
         d="m 441.64932,198.00933 c -8.08453,1.19857 -46.6126,1.59373 -51.33071,-0.4147 0.35366,6.69281 -3.97916,6.49879 -11.16945,6.49879 -7.19029,0 -14.02721,2.18172 -12.64447,-3.62581 -4.76171,3.25552 -6.19346,2.94518 -10.43133,2.90364 -5.77935,-0.0566 -11.28051,2.0057 -11.64647,-3.56496 -0.38143,-5.80616 4.10641,-2.4038 6.3188,-9.59408 2.21239,-7.19029 5.17331,-10.73168 2.96092,-18.19851 -2.21239,-7.46684 -8.01992,-38.16382 -6.63718,-43.97135 1.38274,-5.80754 0,-12.44472 -1.65931,-18.25226 -1.65928,-5.80753 2.2124,-29.037681 4.9779,-37.61071 2.76551,-8.573029 6.0841,-14.933665 8.84957,-16.86951 2.76551,-1.935845 0.25473,-6.693028 -2.25362,-11.508336 -4.42479,3.042041 -8.5318,5.700798 -11.57385,-2.042583 -3.04202,-7.743383 -3.59513,-13.039068 -1.10619,-15.80456 2.48896,-2.765493 1.65931,-11.020726 5.53101,-13.50967 3.87167,-2.4889445 7.74337,-9.1261288 13.27435,-11.8916223 5.53099,-2.7654935 7.74338,-6.9137336 13.82748,-6.9137336 6.08406,0 5.25442,0.8296481 9.95578,-0.5530988 4.70132,-1.3827466 3.59514,-1.9358455 6.36062,1e-7 2.7655,1.9358454 3.59516,1.3827466 9.40268,3.318592 5.80752,1.9358455 11.89161,8.0199311 15.76331,16.3164116 3.8717,8.29648 10.50889,11.061974 11.06197,22.677048 0.55311,11.615071 1.85513,17.234842 -6.16656,17.8908 -5.92001,0.484096 -12.07349,0.383286 -17.06358,-2.539838 2.7655,9.402677 0.27655,23.365945 4.14825,33.598272 4.2129,11.134093 4.97788,17.422608 14.38057,29.314228 9.40265,11.89162 21.01773,23.5067 23.50669,38.16381 2.48894,14.65712 -0.82966,18.25226 5.25442,32.63283 6.23581,14.73921 8.82457,17.06404 -1.65929,17.4226 -6.3809,0.21823 -9.95577,1.6593 -10.23231,-3.87169 z"
         id="path1727"
         sodipodi:nodetypes="ccscsssssssscssssssssssscsssssc" />
      <path
         style="fill:none;stroke:#000000;stroke-width:0.264583px;stroke-linecap:butt;stroke-linejoin:miter;stroke-opacity:1"
         d="m 366.50469,200.46761 c 1.77832,-3.99881 4.3897,-4.84367 5.84901,-7.37825 1.45931,-2.53459 0.66343,-6.62426 2.76501,-9.67751 4.0707,-5.91404 3.39268,-11.35787 6.03405,-16.56535 2.64138,-5.20748 4.1321,-9.32988 5.53685,-13.46492 2.08391,-6.13425 2.80644,-10.89005 3.91457,-19.79951"
         id="path4188"
         sodipodi:nodetypes="csczsc" />
      <path
         style="fill:none;stroke:#000000;stroke-width:0.264583px;stroke-linecap:butt;stroke-linejoin:miter;stroke-opacity:1"
         d="m 365.55849,146.41504 c 3.73703,4.31196 18.97263,12.26513 18.97263,12.26513"
         id="path6631" />
      <path
         style="fill:none;stroke:#000000;stroke-width:0.264583px;stroke-linecap:butt;stroke-linejoin:miter;stroke-opacity:1"
         d="m 390.31859,197.59463 c -0.13401,-4.03548 -0.99639,-7.96415 0.72838,-10.93462 1.72479,-2.97046 2.49136,-4.69524 2.49136,-6.80331 0,-2.10807 2.39554,-8.52811 4.40778,-14.08575 2.01226,-5.55763 5.65346,-14.46902 5.65346,-14.46902"
         id="path6633" />
      <path
         style="fill:none;stroke:#000000;stroke-width:0.264583px;stroke-linecap:butt;stroke-linejoin:miter;stroke-opacity:1"
         d="m 441.64932,198.00933 c -0.96687,-3.30032 1.71611,-5.50421 1.71611,-5.50421 0,0 -1.62896,-1.62897 -1.05402,-3.73704 0.57492,-2.10807 -1.34151,-4.59942 -4.4078,-7.47406 -3.06628,-2.87464 -4.79104,-4.31197 -5.74926,-7.28243"
         id="path6635" />
      <path
         style="fill:none;stroke:#000000;stroke-width:0.264583px;stroke-linecap:butt;stroke-linejoin:miter;stroke-opacity:1"
         d="m 388.17235,27.404909 c -3.73706,-1.341499 -4.00134,-5.427854 2.87462,-4.599425 7.95318,0.958214 7.18662,5.174353 4.02451,5.557638"
         id="path6637"
         sodipodi:nodetypes="csc" />
      <path
         style="fill:none;stroke:#000000;stroke-width:0.264583px;stroke-linecap:butt;stroke-linejoin:miter;stroke-opacity:1"
         d="m 356.98398,43.801532 c 3.87927,-1.831776 9.62856,0.65958 10.20347,-5.472988"
         id="path7107" />
      <path
         style="fill:none;stroke:#000000;stroke-width:0.264583px;stroke-linecap:butt;stroke-linejoin:miter;stroke-opacity:1"
         d="m 406.25098,50.749279 c -3.9929,-3.221884 -3.80126,-7.24638 -1.3099,-12.612376 2.49135,-5.365998 3.83286,-11.88185 3.83286,-11.88185"
         id="path8111"
         sodipodi:nodetypes="csc" />
      <path
         style="fill:none;stroke:#ff0000;stroke-width:0.264583px;stroke-linecap:butt;stroke-linejoin:miter;stroke-opacity:1"
         d="m 367.76239,2.8746407 c -3.64122,10.9236353 -2.10807,15.3314183 -0.95822,18.7809873 1.14986,3.449569 2.49135,6.515853 3.83286,10.923634 1.34149,4.407784 3.44956,11.498564 9.00721,12.073493"
         id="path8241" />
      <path
         style="fill:none;stroke:#ff0000;stroke-width:0.264583px;stroke-linecap:butt;stroke-linejoin:miter;stroke-opacity:1"
         d="M 391.71774,-4.5994253 C 392.10101,0.38328544 390.56788,8.240637 390.56788,8.240637"
         id="path8309" />
      <path
         style="fill:none;stroke:#ff0000;stroke-width:0.264583px;stroke-linecap:butt;stroke-linejoin:miter;stroke-opacity:1"
         d="m 391.90937,102.14557 c -14.37319,-4.407781 -21.27234,-3.066283 -26.06341,3.83286"
         id="path8311" />
      <path
         style="fill:none;stroke:#ff0000;stroke-width:0.264583px;stroke-linecap:butt;stroke-linejoin:miter;stroke-opacity:1"
         d="m 414.52322,158.29689 c 3.44956,-9.39049 9.58214,-17.63113 12.84006,-6.7075 3.25792,10.92364 1.34149,15.71471 1.34149,15.71471"
         id="path8346"
         sodipodi:nodetypes="csc" />
      <ellipse
         style="opacity:0.295181;fill:none;stroke:#ff0000;stroke-width:0.206888;stroke-linecap:round;stroke-linejoin:round;stroke-miterlimit:4;stroke-dasharray:none"
         id="path23631"
         cx="378.9017"
         cy="9.3177586"
         rx="1.6839757"
         ry="1.0096643" />
      <ellipse
         style="opacity:0.295181;fill:none;stroke:#ff0000;stroke-width:0.264583;stroke-linecap:round;stroke-linejoin:round;stroke-miterlimit:4;stroke-dasharray:none"
         id="path23629"
         cx="402.56393"
         cy="12.076304"
         rx="1.655128"
         ry="1.2873217" />
    </g>
    <g
       id="g19773"
       inkscape:label="gMouette"
       transform="matrix(0.62313005,0,0,0.62313005,-237.81535,35.464949)">
      <path
         style="fill:none;stroke:#000000;stroke-width:0.264583px;stroke-linecap:butt;stroke-linejoin:miter;stroke-opacity:1"
         d="m 724.23617,22.967951 c -19.68682,0.894855 -21.73098,-1.001562 -27.72632,-4.350042 -2.7174,-1.517707 1.40292,-7.875761 7.64052,-16.1243557 6.25742,-8.2748129 23.0199,-28.4979913 35.00005,-32.3220613 18.27922,-5.834737 33.40793,-7.158842 50.41018,-13.124542 17.00223,-5.965704 31.31992,-9.246839 2.38628,-9.545125 -28.93367,-0.298283 -41.16334,1.491428 -65.62272,7.158842 -24.45938,5.667417 -24.28206,12.841974 -32.2148,22.073097 -15.41882,17.9424924 -19.6868,33.706214 -32.51305,21.4765255 C 648.77005,-14.019399 620.73125,-34.302784 599.553,-36.092495 c -21.17823,-1.78971 -25.65252,-0.894855 -16.40568,4.772562 9.24684,5.667416 17.00226,7.457127 23.26624,6.860557 6.26399,-0.59657 14.61596,2.087995 20.28338,6.860557 5.66743,4.772561 7.73177,7.187371 13.10625,14.3484093 5.1689,6.88714 10.3886,9.9467494 4.76428,13.142841 -4.51468,2.5655247 -5.96572,4.8971917 -5.96572,7.5817567 0,2.684566 -2.26502,1.881076 -4.34041,5.266077 -3.65571,5.96255 0.19102,4.899544 4.06872,2.513265 3.87771,-2.386281 10.14169,-1.092439 13.42282,0.995557 3.28115,2.087994 10.14172,6.56227 17.8971,6.860556 7.75542,0.298286 20.58168,-3.281135 28.93367,-2.982852 8.35197,0.298286 21.17823,0.894856 25.65252,-7.15884 z"
         id="path17932"
         sodipodi:nodetypes="cssssssssssssssssssssc" />
      <path
         style="fill:none;stroke:#ff0000;stroke-width:0.264583px;stroke-linecap:butt;stroke-linejoin:miter;stroke-opacity:1"
         d="m 639.13046,19.094532 c 0.69728,1.287272 2.57455,1.340908 5.63181,0.321818 3.05729,-1.01909 4.55909,0.321818 1.39457,0.858181 -3.16455,0.536364 -3.11092,2.520908 -2.41364,3.21818"
         id="path18670" />
      <ellipse
         style="opacity:0.295181;fill:none;stroke:#ff0000;stroke-width:0.264914;stroke-linecap:round;stroke-linejoin:round;stroke-miterlimit:4;stroke-dasharray:none"
         id="path18727"
         cx="597.21466"
         cy="250.89859"
         rx="1.7852892"
         ry="1.2221078"
         transform="rotate(-21.466632)" />
      <path
         style="fill:none;stroke:#ff0000;stroke-width:0.264583px;stroke-linecap:butt;stroke-linejoin:miter;stroke-opacity:1"
         d="m 596.47941,-36.191498 c 21.22508,4.081748 33.47032,20.680856 33.47032,20.680856"
         id="path19336"
         sodipodi:nodetypes="cc" />
      <path
         style="fill:none;stroke:#ff0000;stroke-width:0.264583px;stroke-linecap:butt;stroke-linejoin:miter;stroke-opacity:1"
         d="M 651.44694,5.4423304 C 661.78736,3.2653983 669.40665,3.5375148 669.40665,3.5375148"
         id="path19537" />
      <path
         style="fill:none;stroke:#ff0000;stroke-width:0.264583px;stroke-linecap:butt;stroke-linejoin:miter;stroke-opacity:1"
         d="m 696.07405,28.300119 c 7.61926,-3.537516 24.21837,-1.360583 24.21837,-1.360583"
         id="path19572" />
    </g>
    <g
       id="g16294"
       inkscape:label="gOldEnglishSheepdog"
       transform="matrix(0.7191597,0,0,0.7191597,-313.68263,0.83032459)">
      <path
         style="fill:none;stroke:#000000;stroke-width:0.264583px;stroke-linecap:butt;stroke-linejoin:miter;stroke-opacity:1"
         d="m 453.42669,21.847271 c -1.14985,-10.54035 -0.3833,-15.1397756 10.92364,-16.6729175 11.30692,-1.5331418 10.3487,-0.1916427 18.20606,6.7074955 7.85733,6.899138 6.89912,15.331417 29.70461,9.965422 22.80547,-5.365997 31.62104,-8.43228 39.09513,-2.682999 7.47405,5.749282 7.47405,12.456778 14.56483,17.822774 7.09078,5.365996 17.43948,5.749282 26.44669,-1.149856 9.00721,-6.89914 3.14077,11.833501 -4.98271,18.014415 -8.81555,6.707496 -15.52305,10e-7 -19.16427,-3.449568 -3.6412,-3.449569 -1.91581,0.146403 -2.10807,14.373204 -0.19165,14.18156 -1.91641,23.95534 -13.60663,23.95534 -11.69019,0 -8.43229,-7.282423 -8.43229,-7.282423 0,0 -0.79933,2.496863 -5.55762,0.766572 -8.43228,-3.066285 3.44957,-12.45678 3.44957,-12.45678 0,0 -4.02451,-0.191642 -9.3905,-4.024497 -5.36599,-3.832852 -5.55763,-3.832852 -5.55763,-3.832852 0,0 -3.44958,1.533141 -8.04899,0 -4.59944,-1.533144 -12.64844,-5.940925 -12.64844,-5.940925 0,0 3.25793,5.174353 4.59944,12.648419 1.34149,7.474067 4.79005,22.873504 -2.87464,22.997128 -11.88186,0.191643 -13.67664,1.652916 -10.92365,-7.857352 2.10809,-7.282424 -12.64843,-18.97263 -12.64843,-18.97263 0,0 -10.11219,6.12267 -13.9899,10.923635 -8.04901,9.965422 -8.62393,18.780987 -15.90635,6.899137 -7.28241,-11.881847 -8.81556,-14.373203 1.3415,-18.780986 10.15707,-4.407781 16.09799,-6.899137 6.89914,-13.989918 -9.19885,-7.090783 -15.7147,-16.672917 -17.24784,-21.84727 -1.47098,-4.964564 -1.91644,-5.55764 7.85735,-6.132568 z"
         id="path8705"
         sodipodi:nodetypes="csssssssssscscscscssscsssssc" />
      <path
         style="fill:none;stroke:#ff0000;stroke-width:0.264583px;stroke-linecap:butt;stroke-linejoin:miter;stroke-opacity:1"
         d="m 473.16588,20.122486 c 6.13256,14.564846 6.4994,17.838333 15.71471,13.414991 4.79107,-2.299712 7.28242,-6.132568 7.28242,-6.132568"
         id="path10469"
         sodipodi:nodetypes="csc" />
      <path
         style="fill:none;stroke:#ff0000;stroke-width:0.264583px;stroke-linecap:butt;stroke-linejoin:miter;stroke-opacity:1"
         d="m 456.68461,12.64842 c 6.32421,8.623922 13.98993,12.073491 13.98993,12.073491"
         id="path10580" />
      <path
         style="fill:none;stroke:#ff0000;stroke-width:0.264583px;stroke-linecap:butt;stroke-linejoin:miter;stroke-opacity:1"
         d="m 453.80997,15.331418 c 4.0245,7.282423 8.81557,11.115278 9.00721,8.43228"
         id="path10582" />
      <path
         style="fill:none;stroke:#ff0000;stroke-width:0.264583px;stroke-linecap:butt;stroke-linejoin:miter;stroke-opacity:1"
         d="m 454.95982,27.979838 c 6.70751,9.965423 13.03171,13.606634 13.03171,13.606634"
         id="path10748" />
      <path
         style="fill:none;stroke:#ff0000;stroke-width:0.264583px;stroke-linecap:butt;stroke-linejoin:miter;stroke-opacity:1"
         d="m 459.36762,31.046121 c 5.36599,5.749282 13.79826,9.19885 18.97261,10.540351"
         id="path10783" />
      <path
         style="fill:none;stroke:#ff0000;stroke-width:0.264583px;stroke-linecap:butt;stroke-linejoin:miter;stroke-opacity:1"
         d="m 454.38491,32.387622 c 5.74926,7.665706 9.19884,10.157063 9.19884,10.157063"
         id="path10818" />
      <path
         style="fill:none;stroke:#ff0000;stroke-width:0.264583px;stroke-linecap:butt;stroke-linejoin:miter;stroke-opacity:1"
         d="m 447.48576,22.613841 c 1.14986,3.832855 -1.91643,5.749283 -1.91643,5.749283"
         id="path10853" />
      <path
         style="fill:none;stroke:#ff0000;stroke-width:0.264583px;stroke-linecap:butt;stroke-linejoin:miter;stroke-opacity:1"
         d="m 470.67454,49.443822 c 4.02449,9.965423 13.79825,15.331419 13.79825,15.331419"
         id="path10888" />
      <path
         style="fill:none;stroke:#ff0000;stroke-width:0.264583px;stroke-linecap:butt;stroke-linejoin:miter;stroke-opacity:1"
         d="m 476.8071,47.719038 c 10.15706,12.456776 24.53026,24.530269 22.42219,18.206058 -2.10806,-6.324208 -5.36598,-8.240636 -5.36598,-8.240636"
         id="path10923" />
      <path
         style="fill:none;stroke:#ff0000;stroke-width:0.264583px;stroke-linecap:butt;stroke-linejoin:miter;stroke-opacity:1"
         d="m 487.92238,44.652755 c 12.6484,7.474066 23.76368,6.899137 23.76368,6.899137"
         id="path10958" />
      <path
         style="fill:none;stroke:#ff0000;stroke-width:0.264583px;stroke-linecap:butt;stroke-linejoin:miter;stroke-opacity:1"
         d="m 492.71345,36.028833 c 10.73198,-1.724787 18.97261,1.916428 18.97261,1.916428"
         id="path10993" />
      <path
         style="fill:none;stroke:#ff0000;stroke-width:0.264583px;stroke-linecap:butt;stroke-linejoin:miter;stroke-opacity:1"
         d="m 527.47608,30.591641 c 17.61854,-4.940817 21.81885,5.047175 21.81885,5.047175"
         id="path11028"
         sodipodi:nodetypes="cc" />
      <path
         style="fill:none;stroke:#ff0000;stroke-width:0.264583px;stroke-linecap:butt;stroke-linejoin:miter;stroke-opacity:1"
         d="m 456.30134,70.33288 c 3.06628,9.007207 11.88183,15.331418 9.00719,5.557639"
         id="path11194"
         sodipodi:nodetypes="cc" />
      <path
         style="fill:none;stroke:#ff0000;stroke-width:0.264583px;stroke-linecap:butt;stroke-linejoin:miter;stroke-opacity:1"
         d="m 501.72064,77.232017 c 3.06631,6.707497 2.87464,9.390494 2.10809,11.690207"
         id="path11338" />
      <path
         style="fill:none;stroke:#ff0000;stroke-width:0.264583px;stroke-linecap:butt;stroke-linejoin:miter;stroke-opacity:1"
         d="m 516.43613,35.178475 c 8.2875,1.586754 11.34792,2.958426 14.22257,10.240849 2.87464,7.282426 12.64843,5.365999 16.28963,14.181564"
         id="path11373"
         sodipodi:nodetypes="csc" />
      <path
         style="fill:none;stroke:#ff0000;stroke-width:0.264583px;stroke-linecap:butt;stroke-linejoin:miter;stroke-opacity:1"
         d="m 542.15728,40.436614 c 9.19885,6.707497 17.24784,12.64842 13.41498,22.997128 -3.83286,10.348706 -4.59944,14.373204 -3.83286,17.439487"
         id="path11408" />
      <path
         style="fill:none;stroke:#ff0000;stroke-width:0.264583px;stroke-linecap:butt;stroke-linejoin:miter;stroke-opacity:1"
         d="m 576.07803,45.227684 c 3.83286,5.557639 9.96542,6.707494 9.96542,6.707494"
         id="path11443" />
    </g>
    <g
       id="g17885"
       inkscape:label="gPoitou"
       transform="matrix(0.61611781,0,0,0.61611781,-148.56346,242.97212)">
      <path
         style="fill:none;stroke:#000000;stroke-width:0.264583px;stroke-linecap:butt;stroke-linejoin:miter;stroke-opacity:1"
         d="m 378.90103,-185.78956 c -6.44778,-7.85678 -9.06212,-10.35415 -9.35954,-16.13707 -0.62646,-12.18047 6.46607,-20.36563 14.69802,-8.04582 8.79684,13.16521 3.52212,21.60157 3.52212,21.60157"
         id="path11694"
         sodipodi:nodetypes="cssc" />
      <path
         style="fill:none;stroke:#000000;stroke-width:0.264583px;stroke-linecap:butt;stroke-linejoin:miter;stroke-opacity:1"
         d="m 369.85434,-206.9669 c -9.40647,-3.45764 -11.97604,-6.77752 -18.07948,-8.73384 -8.55941,-2.74352 -5.16556,2.87953 -0.86093,7.35635 4.30464,4.47682 10.04513,9.69376 12.97229,15.37588 -1.9594,5.50759 -1.42417,11.69459 -1.25201,19.7873 0.17219,8.09272 -0.38578,11.29774 -1.54498,16.1831 -1.40199,5.90858 -0.0163,15.63386 4.97702,17.18353 4.99338,1.54967 17.27289,0.3077 21.23315,-4.34131 3.96028,-4.64901 8.27794,-19.33223 17.42486,-16.09399 6.62113,2.34406 14.21114,6.31595 14.21114,6.31595"
         id="path11696"
         sodipodi:nodetypes="csscsssssc" />
      <path
         style="fill:none;stroke:#000000;stroke-width:0.264583px;stroke-linecap:butt;stroke-linejoin:miter;stroke-opacity:1"
         d="m 418.9354,-153.93393 c -1.3481,14.62048 6.35167,12.45077 6.72967,28.61546 0.41335,17.67636 -1.67089,39.893043 -3.75954,44.488054 -2.08865,4.59501 -7.31025,9.398886 0.20886,10.234342 7.51912,0.835456 13.01432,-1.319515 15.45595,-11.696391 1.67092,-7.10138 4.90566,-7.852883 5.92409,-15.199508 1.16022,-8.369457 4.28264,-15.741117 3.73356,-21.447147 -1.00885,-10.48408 2.03874,-3.24639 6.00714,6.57022 3.96844,9.81662 12.32299,16.082538 20.05096,28.823249 7.72798,12.740712 9.69746,19.285221 13.57618,14.202763 6.05707,-7.936837 4.09095,-11.335951 -0.6266,-20.886412 -3.1444,-6.365694 -4.38612,-14.41163 -8.35455,-21.72188 -3.96841,-7.31024 -14.62048,-20.8864 -2.08865,-19.21549 12.53185,1.67091 13.36731,2.50637 22.1396,-2.08864 8.77229,-4.59501 6.89253,-5.01274 11.06979,2.2975 4.1773,7.31025 8.76937,12.05551 6.26592,21.51301 -3.75955,14.202755 -13.99389,22.975053 -14.41162,31.747345 -0.41772,8.772295 -2.08864,11.278665 4.1773,11.278665 6.26591,0 9.81661,-1.879777 11.27864,-8.981159 1.46206,-7.10138 6.8034,-5.263596 11.06981,-14.202759 8.77228,-18.380042 7.93683,-27.778932 13.15845,-11.069802 3.96224,12.679139 3.34182,19.215502 0.62658,25.69029 -2.71523,6.474788 -1.46203,9.398887 6.68364,7.936836 7.94344,-1.425753 12.32301,2e-6 11.06981,-16.500264 -1.25317,-16.500262 4.24457,-25.817772 -6.89251,-44.905792 -9.9645,-17.07832 -9.60775,-12.94958 -2.29751,-20.05095 7.94014,-7.71328 5.12124,-33.26171 -4.17728,-41.56396 -11.69639,-10.44321 -24.64596,-9.19003 -42.81715,-6.89252 -18.17118,2.2975 -45.32351,1.87977 -58.06423,-0.20887 -12.74069,-2.08864 -25.93671,0.73006 -40.51964,-1.25317 -9.75141,-1.32616 -16.83414,-6.55824 -16.83414,-6.55824"
         id="path11731"
         sodipodi:nodetypes="csssssssssssssssssssssssssssssc" />
      <path
         style="display:inline;fill:none;stroke:#ff0000;stroke-width:0.264583px;stroke-linecap:butt;stroke-linejoin:miter;stroke-opacity:1"
         d="m 360.49948,-157.06582 c 5.94177,3.05367 15.07886,8.31273 15.57991,13.11606 0.36839,3.53153 -6.43216,8.31337 -8.93851,-1.92097"
         id="path15280"
         sodipodi:nodetypes="csc" />
      <path
         style="display:inline;fill:none;stroke:#ff0000;stroke-width:0.264583px;stroke-linecap:butt;stroke-linejoin:miter;stroke-opacity:1"
         d="m 372.83262,-173.15841 c 5.01275,-4.17728 8.72915,-5.74332 4.37598,-6.6736 -2.60098,-0.55584 -3.66331,0.84685 -4.36771,3.25219 -0.91205,3.11442 -0.008,3.42141 -0.008,3.42141 z"
         id="path15519"
         sodipodi:nodetypes="cssc" />
      <path
         style="display:inline;fill:none;stroke:#ff0000;stroke-width:0.264583px;stroke-linecap:butt;stroke-linejoin:miter;stroke-opacity:1"
         d="m 431.80544,-174.9111 c -6.58704,7.49909 -11.04595,14.79549 -12.87004,20.97717"
         id="path15801" />
      <path
         style="display:inline;fill:none;stroke:#ff0000;stroke-width:0.264583px;stroke-linecap:butt;stroke-linejoin:miter;stroke-opacity:1"
         d="m 545.5078,-151.60313 c -9.93124,11.65398 -8.91784,30.90839 -9.22186,39.52221"
         id="path15836"
         sodipodi:nodetypes="cc" />
      <path
         style="display:inline;fill:none;stroke:#ff0000;stroke-width:0.264583px;stroke-linecap:butt;stroke-linejoin:miter;stroke-opacity:1"
         d="m 430.60664,-131.43306 c 6.17228,8.35072 12.34454,10.89224 12.34454,10.89224 m 15.9753,-36.67055 c 7.98765,13.43377 8.35072,21.42141 8.35072,21.42141"
         id="path16079" />
      <path
         style="fill:none;stroke:#ff0000;stroke-width:0.264583px;stroke-linecap:butt;stroke-linejoin:miter;stroke-opacity:1"
         d="m 354.06438,-208.50127 c 9.04092,4.6634 16.08043,9.16734 11.46012,13.23203"
         id="path17753"
         sodipodi:nodetypes="cc" />
    </g>
    <g
       id="g2163"
       transform="translate(38.833253,14.193949)"
       inkscape:label="gRougeGorge">
      <path
         style="fill:none;stroke:#000000;stroke-width:0.220597px;stroke-linecap:butt;stroke-linejoin:miter;stroke-opacity:1"
         d="m 7.8981641,76.190214 c 0,0 32.3128169,-6.901773 37.6460239,-6.588057 5.33319,0.313717 8.156631,1.254867 8.156631,1.254867 0,0 -5.646915,7.842922 -7.529207,12.862388 -1.882291,5.019473 10.038948,-3.137166 19.450445,-10.666364 9.411506,-7.529206 11.921239,-10.352656 11.921239,-10.352656"
         id="path16386" />
      <path
         style="fill:none;stroke:#000000;stroke-width:0.220597px;stroke-linecap:butt;stroke-linejoin:miter;stroke-opacity:1"
         d="M 7.8981641,76.190214 9.9716517,73.541311 7.9687164,72.354387 c 0,0 31.0084416,-6.750647 37.9816346,-10.904892 6.973201,-4.154238 8.531036,-6.67646 15.430042,-14.836576 6.899005,-8.160116 14.836584,-16.0235 18.768267,-24.480349 3.931708,-8.456849 10.088889,-11.12743 15.133317,-11.053251 5.044443,0.0742 11.424163,3.783326 11.424163,8.531029"
         id="path16388" />
      <path
         style="fill:none;stroke:#000000;stroke-width:0.220597;stroke-linecap:butt;stroke-linejoin:miter;stroke-miterlimit:4;stroke-dasharray:none;stroke-opacity:1"
         d="m 102.70027,22.874403 c 5.41534,0.148358 8.6794,-1.557845 8.6794,-1.557845 0,0 -0.37093,-1.112744 -4.67353,-1.70621"
         id="path16390"
         sodipodi:nodetypes="ccc" />
      <path
         id="path16522"
         style="fill:none;stroke:#000000;stroke-width:0.833752px;stroke-linecap:butt;stroke-linejoin:miter;stroke-opacity:1"
         d="m 271.32156,281.54141 c 32.43756,4.26582 68.49681,3.15627 87.95818,-11.16015 24.39276,-17.9441 50.46772,-46.82286 55.23412,-78.50536 4.7664,-31.68254 4.48604,-43.45834 0.5607,-57.19676 -3.92523,-13.73843 -9.81309,-14.85994 -10.0935,-24.67311 -0.28044,-9.81317 -0.5608,-15.701084 -2.52336,-22.710479"
         transform="scale(0.26458333)" />
      <path
         id="path2067"
         style="fill:none;stroke:#ff0000;stroke-width:0.833752px;stroke-linecap:butt;stroke-linejoin:miter;stroke-opacity:1"
         d="m 259.9114,279.80024 c 3.72911,0.64792 7.54391,1.23273 11.41016,1.74117"
         transform="scale(0.26458333)" />
      <path
         id="path2065"
         style="fill:none;stroke:#000000;stroke-width:0.833752px;stroke-linecap:butt;stroke-linejoin:miter;stroke-opacity:1"
         d="m 246.80627,277.01192 c 3.9326,0.87058 8.9064,2.05882 13.10513,2.78832"
         transform="scale(0.26458333)"
         sodipodi:nodetypes="cc" />
      <path
         style="fill:none;stroke:#ff0000;stroke-width:0.220597px;stroke-linecap:butt;stroke-linejoin:miter;stroke-opacity:1"
         d="m 63.902615,49.431874 c -6.157181,6.23136 -21.339606,29.183121 0.519287,16.171866 9.347031,-5.563715 11.795066,-8.976128 11.795066,-8.976128"
         id="path16524"
         sodipodi:nodetypes="csc" />
      <path
         style="fill:none;stroke:#ff0000;stroke-width:0.220597;stroke-linecap:butt;stroke-linejoin:miter;stroke-miterlimit:4;stroke-dasharray:none;stroke-opacity:1"
         d="m 77.107176,46.835473 c -13.204561,2.596401 -11.513391,11.684902 -1.038574,9.569594 6.759768,-1.365089 10.237239,-3.11568 10.237239,-3.11568"
         id="path16649"
         sodipodi:nodetypes="csc" />
      <path
         style="fill:none;stroke:#ff0000;stroke-width:0.220597px;stroke-linecap:butt;stroke-linejoin:miter;stroke-opacity:1"
         d="m 86.825128,23.022761 c -5.044445,5.415356 -4.228433,8.679403 3.041492,9.198682 7.269934,0.519278 5.415365,5.192802 2.744768,12.982007 -2.67058,7.789195 0.301836,15.735187 9.495412,11.795074 4.67352,-2.002935 7.34412,-8.531028 7.34412,-8.531028"
         id="path17010"
         sodipodi:nodetypes="csssc" />
      <circle
         style="opacity:0.295181;fill:none;stroke:#ff0000;stroke-width:0.220597;stroke-linecap:round;stroke-linejoin:round;stroke-miterlimit:4;stroke-dasharray:none"
         id="path17338"
         cx="93.279037"
         cy="20.723083"
         r="1.6675078" />
      <path
         id="path19884"
         style="fill:none;stroke:#000000;stroke-width:0.833752px;stroke-linecap:butt;stroke-linejoin:miter;stroke-opacity:1"
         d="m 335.72688,335.07892 c 6.07658,-0.78675 12.01842,-0.22443 19.93443,6.40875"
         transform="scale(0.26458333)" />
      <path
         id="path1715"
         style="fill:none;stroke:#ff0000;stroke-width:0.833752px;stroke-linecap:butt;stroke-linejoin:miter;stroke-opacity:1"
         d="m 314.33765,336.08458 c 1.69833,0.67748 3.44567,1.0263 5.30512,1.05325 6.18816,0.0897 11.18001,-1.42396 16.08411,-2.05891"
         transform="scale(0.26458333)" />
      <path
         id="path1713"
         style="fill:none;stroke:#000000;stroke-width:0.833752px;stroke-linecap:butt;stroke-linejoin:miter;stroke-opacity:1"
         d="m 270.64546,280.10818 c 23.81884,33.55499 32.73536,51.6056 43.69219,55.9764"
         transform="scale(0.26458333)" />
      <path
         id="path19886"
         style="fill:none;stroke:#000000;stroke-width:0.833752px;stroke-linecap:butt;stroke-linejoin:miter;stroke-opacity:1"
         d="m 313.10247,336.26816 c 11.09225,-4.43863 18.7241,-5.79456 27.16746,1.11179"
         transform="scale(0.26458333)" />
      <path
         id="path1577"
         style="fill:none;stroke:#ff0000;stroke-width:0.833752px;stroke-linecap:butt;stroke-linejoin:miter;stroke-opacity:1"
         d="m 295.98652,338.42359 c 3.45405,2.28557 6.84619,2.1979 11.20613,0.32071 2.08134,-0.89614 4.04451,-1.72973 5.90982,-2.47614"
         transform="scale(0.26458333)" />
      <path
         id="path1575"
         style="fill:none;stroke:#000000;stroke-width:0.833752px;stroke-linecap:butt;stroke-linejoin:miter;stroke-opacity:1"
         d="m 258.19536,277.09605 c 21.4588,38.00879 29.79105,56.03382 37.79116,61.32754"
         transform="scale(0.26458333)" />
      <path
         style="fill:none;stroke:#000000;stroke-width:0.220597px;stroke-linecap:butt;stroke-linejoin:miter;stroke-opacity:1"
         d="m 78.090213,89.466702 c -3.134706,0.371914 -5.227908,-1.724401 -10.229988,1.228251"
         id="path19888"
         sodipodi:nodetypes="cc" />
      <path
         style="fill:none;stroke:#000000;stroke-width:0.211667;stroke-linecap:butt;stroke-linejoin:miter;stroke-miterlimit:4;stroke-dasharray:none;stroke-opacity:1"
         d="m 67.860224,90.694951 c 7.026669,0.558837 21.140459,0.458642 26.24183,-0.343006"
         id="path1769" />
    </g>
    <g
       id="g14172"
       inkscape:label="gOrque">
      <path
         style="fill:none;stroke:#000000;stroke-width:0.264583px;stroke-linecap:butt;stroke-linejoin:miter;stroke-opacity:1"
         d="m 270.42118,106.01739 c 8.88489,3.40699 10.82219,3.47379 14.3628,2.60535 3.54057,-0.86845 6.01233,-3.40699 -4.74306,-8.41726"
         id="path12520"
         sodipodi:nodetypes="csc" />
      <path
         id="path12581"
         style="fill:none;stroke:#000000;stroke-width:0.999999px;stroke-linecap:butt;stroke-linejoin:miter;stroke-opacity:1"
         d="m 914.0002,421.65203 c 40.39778,-1.26244 72.97931,-4.01688 108.3166,-20.70387 0.064,-0.0303 0.1283,-0.0606 0.1922,-0.0909"
         transform="scale(0.26458333)" />
      <path
         id="path12583"
         style="fill:none;stroke:#ff0000;stroke-width:0.999999px;stroke-linecap:butt;stroke-linejoin:miter;stroke-opacity:1"
         d="m 1022.509,400.8573 c 17.751,-8.3945 21.7134,-11.9606 36.27,-21.93341"
         transform="scale(0.26458333)" />
      <path
         id="path12314"
         style="fill:none;stroke:#000000;stroke-width:0.999999px;stroke-linecap:butt;stroke-linejoin:miter;stroke-opacity:1"
         d="m 1058.779,378.92389 c 0.2154,-0.14759 0.4332,-0.29659 0.6533,-0.44703 15.1491,-10.35193 30.5508,-28.78342 33.5806,-36.61049 3.0299,-7.82708 0.1771,-9.34918 -4.6202,-9.85414"
         transform="scale(0.26458333)"
         sodipodi:nodetypes="ccsc" />
      <path
         id="path10052"
         style="fill:none;stroke:#000000;stroke-width:0.999999px;stroke-linecap:butt;stroke-linejoin:miter;stroke-opacity:1"
         d="m 914.27434,421.46361 c -1.55081,0.85327 -3.15611,1.75654 -4.81894,2.71323 -36.86298,21.20886 -89.38012,11.10939 -53.02212,-6.56462 36.35803,-17.67406 47.46743,-26.25854 64.13152,-26.76353"
         transform="scale(0.26458333)" />
      <path
         id="path13394"
         style="fill:none;stroke:#ff0000;stroke-width:0.999999px;stroke-linecap:butt;stroke-linejoin:miter;stroke-opacity:1"
         d="m 1088.3927,332.01223 c -11.1011,2.72653 -32.159,2.40187 -41.5847,0.25967 -11.1094,-2.52488 -23.7338,-9.59449 -48.47739,6.56464 -24.74369,16.15912 -42.92273,27.2685 -31.30835,35.85304 11.61437,8.58452 15.14917,21.20883 1.51494,27.26848 -13.01924,5.78633 -21.43407,1.44293 -54.26286,19.50555"
         transform="scale(0.26458333)"
         sodipodi:nodetypes="cssssc" />
      <path
         id="path12983"
         style="fill:none;stroke:#000000;stroke-width:0.999999px;stroke-linecap:butt;stroke-linejoin:miter;stroke-opacity:1"
         d="m 724.6355,253.49619 c 29.2884,17.67403 60.09173,26.25857 84.33041,23.22873 24.23868,-3.02983 49.48728,-10.60442 53.02209,-17.16906 3.53484,-6.56464 6.56466,-27.77349 6.56466,-44.43758 0,-16.66409 7.57459,-44.94255 29.79337,-12.62431 22.21879,32.31824 17.16907,61.60664 42.92266,63.62653 25.75359,2.01989 122.20331,7.57458 134.57521,22.47128 11.1108,13.37826 5.5547,15.65414 15.1492,21.71381 5.5667,3.51582 10.3519,15.40166 2.2723,19.94642 -1.2245,0.68878 -2.8898,1.27318 -4.8727,1.76022"
         transform="scale(0.26458333)"
         sodipodi:nodetypes="cssssssssc" />
      <path
         style="fill:none;stroke:#000000;stroke-width:0.264583px;stroke-linecap:butt;stroke-linejoin:miter;stroke-opacity:1"
         d="m 227.66684,109.8252 c -19.37306,-6.14594 -40.92572,-25.571702 -43.68959,-32.332964 -2.10701,-5.154373 -1.46968,-4.809863 -16.43369,-5.210685 -7.23197,-0.193714 -20.98499,-5.637361 -10.9558,-4.94347 8.53823,0.590735 13.20076,-4.284221 18.97224,-2.538538 3.47379,-3.206576 9.19188,-0.109976 14.96402,-1.469682 8.9534,-2.109096 9.08514,-0.738705 7.08118,2.004109 -1.92039,2.62842 -3.6074,2.93936 -3.6074,2.93936"
         id="path10054"
         sodipodi:nodetypes="cssscssc" />
      <ellipse
         style="opacity:0.931727;fill:none;fill-opacity:1;stroke:#ff0000;stroke-width:0.211667;stroke-linecap:round;stroke-linejoin:round;stroke-miterlimit:4;stroke-dasharray:none"
         id="path13570"
         cx="269.09036"
         cy="84.473221"
         rx="1.736895"
         ry="1.7034931" />
    </g>
    <path
       style="fill:none;stroke:#ffff00;stroke-width:0.264583px;stroke-linecap:butt;stroke-linejoin:miter;stroke-opacity:1"
       d="m 195.60109,39.681368 c 8.68448,-12.425479 13.22712,-18.972236 21.10995,-22.446026 7.88283,-3.47379 28.85918,-7.6156163 35.40594,-9.7533332"
       id="path1833"
       sodipodi:nodetypes="csc" />
    <path
       style="fill:none;stroke:#ffff00;stroke-width:0.264583px;stroke-linecap:butt;stroke-linejoin:miter;stroke-opacity:1"
       d="m 185.04611,73.617623 c 4.00822,7.882832 26.01036,29.396387 45.11621,34.607077"
       id="path1868"
       sodipodi:nodetypes="cc" />
    <path
       style="fill:none;stroke:#ffff00;stroke-width:0.264583px;stroke-linecap:butt;stroke-linejoin:miter;stroke-opacity:1"
       d="m 116.77278,84.974245 c 10.15416,-0.801645 17.07116,-3.001225 20.84274,-10.020549 4.80986,-8.951688 6.68037,-21.644382 4.40904,-32.199361"
       id="path1903"
       sodipodi:nodetypes="csc" />
    <path
       style="fill:none;stroke:#ffff00;stroke-width:0.264583px;stroke-linecap:butt;stroke-linejoin:miter;stroke-opacity:1"
       d="m 139.48602,129.99991 c 16.16648,1.46968 35.40594,-5.21069 41.41827,-1.06887 6.01233,4.14183 8.099,8.34382 4.75882,18.8988"
       id="path1938"
       sodipodi:nodetypes="csc" />
    <path
       style="fill:none;stroke:#ffff00;stroke-width:0.264583px;stroke-linecap:butt;stroke-linejoin:miter;stroke-opacity:1"
       d="m 226.9988,140.02045 c 6.68037,-8.15004 16.77697,-12.71615 25.11817,-9.88694 9.5062,3.22437 10.68858,18.30421 8.68448,24.71736"
       id="path1973"
       sodipodi:nodetypes="csc" />
    <path
       style="fill:none;stroke:#ffff00;stroke-width:0.264583px;stroke-linecap:butt;stroke-linejoin:miter;stroke-opacity:1"
       d="m 37.810866,133.20648 c 0.534429,9.75333 3.607397,20.97635 9.486118,28.85918 5.943479,7.96967 11.356621,6.27954 12.559086,21.24356"
       id="path2008"
       sodipodi:nodetypes="csc" />
    <path
       style="fill:none;stroke:#ffff00;stroke-width:0.264583px;stroke-linecap:butt;stroke-linejoin:miter;stroke-opacity:1"
       d="m 48.232235,25.25178 c 10.822191,-0.400822 21.307899,-6.96484 28.257946,-4.342237 8.763853,3.307043 11.824246,14.362786 11.289817,25.853012"
       id="path2043"
       sodipodi:nodetypes="csc" />
    <text
       xml:space="preserve"
       style="font-style:normal;font-weight:normal;font-size:10.5833px;line-height:1.25;font-family:sans-serif;fill:none;fill-opacity:1;stroke:#00ff00;stroke-width:0.264583"
       id="text2630"><textPath
         xlink:href="#path2043"
         id="textPath7596"><tspan
           id="tspan2628"
           style="fill:none;stroke:#00ff00;stroke-width:0.264583"><tspan
             style="font-size:7.76111px;fill:none;stroke:#00ff00"
             id="tspan5064">Esther </tspan><tspan
             style="font-size:4.93889px;fill:none;stroke:#00ff00"
             id="tspan3808">2021-09-10</tspan></tspan></textPath></text>
    <text
       xml:space="preserve"
       style="font-style:normal;font-weight:normal;font-size:10.5833px;line-height:1.25;font-family:sans-serif;fill:none;fill-opacity:1;stroke:#00ff00;stroke-width:0.264583"
       id="text5798"><textPath
         xlink:href="#path1833"
         id="textPath7611"><tspan
           id="tspan5796"
           style="fill:none;stroke:#00ff00;stroke-width:0.264583"><tspan
             style="font-size:7.76111px;fill:none;stroke:#00ff00"
             id="tspan5792">Esther </tspan><tspan
             style="font-size:4.93889px;fill:none;stroke:#00ff00"
             id="tspan5794">2021-09-10</tspan></tspan></textPath></text>
    <text
       xml:space="preserve"
       style="font-style:normal;font-weight:normal;font-size:10.5833px;line-height:1.25;font-family:sans-serif;fill:none;fill-opacity:1;stroke:#00ff00;stroke-width:0.264583"
       id="text7124"><textPath
         xlink:href="#path1903"
         id="textPath7601"><tspan
           id="tspan7122"
           style="fill:none;stroke:#00ff00;stroke-width:0.264583"><tspan
             style="font-size:7.76111px;fill:none;stroke:#00ff00"
             id="tspan7118">Esther </tspan><tspan
             style="font-size:4.93889px;fill:none;stroke:#00ff00"
             id="tspan7120">2021-09-10</tspan></tspan></textPath></text>
    <text
       xml:space="preserve"
       style="font-style:normal;font-weight:normal;font-size:10.5833px;line-height:1.25;font-family:sans-serif;fill:none;fill-opacity:1;stroke:#00ff00;stroke-width:0.264583"
       id="text7552"><textPath
         xlink:href="#path1868"
         id="textPath7606"><tspan
           id="tspan7550"
           style="fill:none;stroke:#00ff00;stroke-width:0.264583"><tspan
             style="font-size:7.76111px;fill:none;stroke:#00ff00"
             id="tspan7546">Esther </tspan><tspan
             style="font-size:4.93889px;fill:none;stroke:#00ff00"
             id="tspan7548">2021-09-10</tspan></tspan></textPath></text>
    <text
       xml:space="preserve"
       style="font-style:normal;font-weight:normal;font-size:10.5833px;line-height:1.25;font-family:sans-serif;fill:none;fill-opacity:1;stroke:#00ff00;stroke-width:0.264583"
       id="text7560"><textPath
         xlink:href="#path1938"
         id="textPath7591"><tspan
           id="tspan7558"
           style="fill:none;stroke:#00ff00;stroke-width:0.264583"><tspan
             style="font-size:7.76111px;fill:none;stroke:#00ff00"
             id="tspan7554">Esther </tspan><tspan
             style="font-size:4.93889px;fill:none;stroke:#00ff00"
             id="tspan7556">2021-09-10</tspan></tspan></textPath></text>
    <text
       xml:space="preserve"
       style="font-style:normal;font-weight:normal;font-size:10.5833px;line-height:1.25;font-family:sans-serif;fill:none;fill-opacity:1;stroke:#00ff00;stroke-width:0.264583"
       id="text7576"><textPath
         xlink:href="#path1973"
         id="textPath7616"><tspan
           id="tspan7574"
           style="fill:none;stroke:#00ff00;stroke-width:0.264583"><tspan
             style="font-size:7.76111px;fill:none;stroke:#00ff00"
             id="tspan7570">Esther </tspan><tspan
             style="font-size:4.93889px;fill:none;stroke:#00ff00"
             id="tspan7572">2021-09-10</tspan></tspan></textPath></text>
    <text
       xml:space="preserve"
       style="font-style:normal;font-weight:normal;font-size:10.5833px;line-height:1.25;font-family:sans-serif;fill:none;fill-opacity:1;stroke:#00ff00;stroke-width:0.264583"
       id="text7584"><textPath
         xlink:href="#path2008"
         id="textPath7586"><tspan
           id="tspan7582"
           style="fill:none;stroke:#00ff00;stroke-width:0.264583"><tspan
             style="font-size:7.76111px;fill:none;stroke:#00ff00"
             id="tspan7578">Esther </tspan><tspan
             style="font-size:4.93889px;fill:none;stroke:#00ff00"
             id="tspan7580">2021-09-10</tspan></tspan></textPath></text>
  </g>
  <g
     inkscape:groupmode="layer"
     id="layer3"
     inkscape:label="Engrave"
     style="display:inline"
     sodipodi:insensitive="true" />
</svg>
