<?xml version="1.0" encoding="UTF-8" standalone="no"?>
<!-- Created with Inkscape (http://www.inkscape.org/) -->

<svg
   width="210mm"
   height="297mm"
   viewBox="0 0 210 297"
   version="1.1"
   id="svg5"
   inkscape:version="1.1 (c4e8f9e, 2021-05-24)"
   sodipodi:docname="animal1.svg"
   xmlns:inkscape="http://www.inkscape.org/namespaces/inkscape"
   xmlns:sodipodi="http://sodipodi.sourceforge.net/DTD/sodipodi-0.dtd"
   xmlns:xlink="http://www.w3.org/1999/xlink"
   xmlns="http://www.w3.org/2000/svg"
   xmlns:svg="http://www.w3.org/2000/svg">
  <sodipodi:namedview
     id="namedview7"
     pagecolor="#ffffff"
     bordercolor="#666666"
     borderopacity="1.0"
     inkscape:pageshadow="2"
     inkscape:pageopacity="0.0"
     inkscape:pagecheckerboard="0"
     inkscape:document-units="mm"
     showgrid="false"
     inkscape:zoom="0.83104554"
     inkscape:cx="236.44914"
     inkscape:cy="379.64225"
     inkscape:window-width="1366"
     inkscape:window-height="667"
     inkscape:window-x="0"
     inkscape:window-y="23"
     inkscape:window-maximized="0"
     inkscape:current-layer="g24079" />
  <defs
     id="defs2">
    <inkscape:path-effect
       effect="spiro"
       id="path-effect2916"
       is_visible="true"
       lpeversion="1" />
  </defs>
  <g
     inkscape:label="Calque 1"
     inkscape:groupmode="layer"
     id="layer1"
     style="display:inline">
    <g
       id="g8519"
       style="display:inline;stroke:#ff00ff;stroke-width:1;stroke-miterlimit:4;stroke-dasharray:none"
       transform="matrix(0.251053,0,0,0.251053,53.842989,59.908409)">
      <circle
         style="fill:none;stroke:#ff00ff;stroke-width:1;stroke-miterlimit:4;stroke-dasharray:none"
         id="path2046-0"
         cx="-9.8794165"
         cy="107.43867"
         r="25.933472" />
      <circle
         style="fill:none;stroke:#ff00ff;stroke-width:1;stroke-miterlimit:4;stroke-dasharray:none"
         id="path2046-2"
         cx="-45.692314"
         cy="187.70894"
         r="25.933472" />
      <circle
         style="fill:none;stroke:#ff00ff;stroke-width:1;stroke-miterlimit:4;stroke-dasharray:none"
         id="path2046-3"
         cx="14.819138"
         cy="287.73804"
         r="25.933472" />
      <path
         id="path8257"
         style="fill:none;stroke:#ff00ff;stroke-width:3.77953;stroke-miterlimit:4;stroke-dasharray:none"
         d="m 224.11731,1274.2116 a 581.09646,581.09646 0 0 1 -0.0801,0 581.09646,581.09646 0 0 1 -581.09646,-581.09652 581.09646,581.09646 0 0 1 341.52453,-529.41325"
         transform="scale(0.26458333)" />
      <path
         id="path8069"
         style="fill:none;stroke:#ff00ff;stroke-width:3.77953;stroke-miterlimit:4;stroke-dasharray:none"
         d="M 225.98295,288.17696 A 289.97623,259.05445 0 0 1 -15.910073,164.10856"
         transform="scale(0.26458333)" />
      <path
         style="fill:none;stroke:#ff00ff;stroke-width:1;stroke-linecap:butt;stroke-linejoin:miter;stroke-miterlimit:4;stroke-dasharray:none;stroke-opacity:1"
         d="M 59.297704,337.13515 59.791321,76.24682"
         id="path8395" />
    </g>
    <g
       id="g2752"
       style="display:inline;stroke:#00ffff;stroke-width:1;stroke-linecap:round;stroke-miterlimit:4;stroke-dasharray:none;paint-order:stroke fill markers"
       transform="matrix(0.251053,0,0,0.251053,53.842989,59.908409)">
      <path
         id="path9907"
         style="fill:none;stroke:#00ffff;stroke-width:3.77953;stroke-linecap:round;stroke-miterlimit:4;stroke-dasharray:none;paint-order:stroke fill markers"
         d="M 521.52239,23.602806 A 581.09647,581.09647 0 0 1 539.08948,23.33721 581.09647,581.09647 0 0 1 1120.186,604.43368 v 0 A 581.09647,581.09647 0 0 1 842.66247,1099.93"
         transform="scale(0.26458333)" />
      <circle
         style="fill:none;stroke:#00ffff;stroke-width:1;stroke-linecap:round;stroke-miterlimit:4;stroke-dasharray:none;paint-order:stroke fill markers"
         id="path2046"
         cx="185.23907"
         cy="56.806652"
         r="25.933472" />
      <circle
         style="fill:none;stroke:#00ffff;stroke-width:1;stroke-linecap:round;stroke-miterlimit:4;stroke-dasharray:none;paint-order:stroke fill markers"
         id="path2046-9"
         cx="179.68192"
         cy="131.51974"
         r="25.933472" />
      <circle
         style="fill:none;stroke:#00ffff;stroke-width:1;stroke-linecap:round;stroke-miterlimit:4;stroke-dasharray:none;paint-order:stroke fill markers"
         id="path2046-97"
         cx="252.54262"
         cy="161.158"
         r="25.933472" />
      <path
         id="path2103"
         style="fill:none;stroke:#00ffff;stroke-width:3.77953;stroke-linecap:round;stroke-miterlimit:4;stroke-dasharray:none;paint-order:stroke fill markers"
         d="m 521.53096,23.603373 a 289.97623,259.05445 0 0 1 0.0669,5.568134 v 0 A 289.97623,259.05445 0 0 1 332.18906,272.14758"
         transform="scale(0.26458333)" />
      <path
         style="fill:#0000ff;stroke:#00ffff;stroke-width:1;stroke-linecap:round;stroke-linejoin:miter;stroke-miterlimit:4;stroke-dasharray:none;stroke-opacity:1;paint-order:stroke fill markers"
         d="M 87.891688,72.005713 222.95444,291.02314"
         id="path2566" />
    </g>
    <g
       id="g1311"
       style="display:inline"
       transform="matrix(0.251053,0,0,0.251053,53.842989,59.908409)">
      <path
         id="path1135"
         style="fill:none;stroke:#000000;stroke-width:3.77953;stroke-miterlimit:4;stroke-dasharray:none"
         d="m 472.90692,168.00846 a 581.09646,581.09646 0 0 1 2.62487,1.25209 581.09646,581.09646 0 0 1 329.60187,523.85453 v 0 A 581.09646,581.09646 0 0 1 224.0372,1274.2116 581.09646,581.09646 0 0 1 -357.05928,693.11508 581.09646,581.09646 0 0 1 -15.993756,163.90979 a 581.09646,581.09646 0 0 1 3.490691,-1.56943"
         transform="scale(0.26458333)" />
      <path
         id="path9992"
         style="fill:none;stroke:#1a1a1a;stroke-width:3.57711;stroke-miterlimit:4;stroke-dasharray:none"
         d="M -16.001637,163.97442 A 289.97623,259.05445 0 0 1 -58.354454,29.171507 289.97623,259.05445 0 0 1 -45.848164,-46.086939"
         transform="scale(0.26458333)" />
      <path
         id="path9399"
         style="fill:none;stroke:#1a1a1a;stroke-width:3.57711;stroke-miterlimit:4;stroke-dasharray:none"
         transform="scale(0.26458333)"
         d="m 511.11473,-39.854249 a 289.97623,259.05445 0 0 1 10.41623,63.457622 m 0,0 a 289.97623,259.05445 0 0 1 0.0669,5.568134 v 0 A 289.97623,259.05445 0 0 1 475.52151,169.28756" />
      <path
         style="fill:none;stroke:#000000;stroke-width:0.9525;stroke-linecap:butt;stroke-linejoin:miter;stroke-miterlimit:4;stroke-dasharray:none;stroke-opacity:1"
         d="m 79.426037,-59.554863 c 8.465456,-27.438201 39.279863,-58.863127 81.607183,-59.100457 10.79285,-0.0605 15.1762,9.61602 0.55903,10.08757 -31.46003,1.01493 -62.343874,23.326972 -73.285074,52.137084"
         id="path6697-7"
         sodipodi:nodetypes="cssc" />
      <path
         style="fill:none;stroke:#000000;stroke-width:0.9525;stroke-linecap:butt;stroke-linejoin:miter;stroke-miterlimit:4;stroke-dasharray:none;stroke-opacity:1"
         d="m 47.885765,-60.008203 c -8.181392,-26.242202 -37.851956,-56.928537 -78.758946,-57.155517 -10.430679,-0.0579 -14.666945,9.19687 -0.540281,9.64787 30.4043858,0.97069 60.135384,22.013234 70.709447,49.567547"
         id="path6697"
         sodipodi:nodetypes="cssc" />
      <path
         id="path2046-03-9"
         style="fill:none;stroke:#000000;stroke-width:0.9525;stroke-miterlimit:4;stroke-dasharray:none"
         d="m 91.612169,-55.25739 a 36.280227,31.34052 0 0 1 11.812991,-1.707864 36.280227,31.34052 0 0 1 36.28023,31.340518 v 0 a 36.280227,31.34052 0 0 1 -4.45763,15.051184" />
      <path
         id="path9255"
         style="fill:none;stroke:#000000;stroke-width:0.9525;stroke-miterlimit:4;stroke-dasharray:none"
         d="m -12.201068,-12.33592 a 36.280227,31.34052 0 0 1 -4.320313,-14.832481 36.280227,31.34052 0 0 1 36.280227,-31.340517 36.280227,31.34052 0 0 1 13.756946,2.340491" />
      <path
         id="path13283"
         style="fill:none;stroke:#000000;stroke-width:3.57711;stroke-miterlimit:4;stroke-dasharray:none"
         d="m 123.6713,-211.2629 c 8.14734,-2.91945 16.43886,-5.50689 24.84896,-7.75431"
         transform="scale(0.26458333)"
         sodipodi:nodetypes="cc" />
      <path
         id="path13484"
         style="display:inline;fill:none;stroke:#000000;stroke-width:3.57711;stroke-miterlimit:4;stroke-dasharray:none"
         d="m 180.98557,-226.80266 c 44.21481,-5.00072 81.21479,-9.51375 119.20733,1.71341"
         transform="scale(0.26458333)"
         sodipodi:nodetypes="cc" />
      <path
         id="path979"
         style="display:inline;fill:none;stroke:#000000;stroke-width:3.57711;stroke-miterlimit:4;stroke-dasharray:none"
         d="m 333.75941,-213.28126 a 289.97623,259.05445 0 0 1 12.38023,4.45561"
         transform="scale(0.26458333)" />
    </g>
    <g
       id="g1225"
       style="display:inline"
       transform="matrix(0.251053,0,0,0.251053,53.842989,59.908409)">
      <path
         id="path2046-03"
         style="fill:none;stroke:#ff0000;stroke-width:0.9525;stroke-miterlimit:4;stroke-dasharray:none"
         d="m 33.515792,-56.168427 a 36.280227,31.34052 0 0 1 22.52328,29.000026 v 0 A 36.280227,31.34052 0 0 1 19.758846,4.172119 36.280227,31.34052 0 0 1 -12.201068,-12.33592" />
      <path
         id="path9144"
         style="fill:none;stroke:#ff0000;stroke-width:0.9525;stroke-miterlimit:4;stroke-dasharray:none"
         d="M 135.24776,-10.573552 A 36.280227,31.34052 0 0 1 103.42516,5.715782 36.280227,31.34052 0 0 1 67.144934,-25.624736 36.280227,31.34052 0 0 1 91.612169,-55.25739" />
      <path
         id="path9403"
         style="display:inline;fill:none;stroke:#ff0000;stroke-width:3.57711;stroke-miterlimit:4;stroke-dasharray:none"
         d="M 475.52151,169.28756 A 289.97623,259.05445 0 0 1 231.62177,288.22595 289.97623,259.05445 0 0 1 -16.001637,163.97442"
         transform="scale(0.26458333)" />
      <path
         id="path1646"
         style="display:inline;fill:none;stroke:#ff0000;stroke-width:3.57711;stroke-miterlimit:4;stroke-dasharray:none"
         transform="scale(0.26458333)"
         d="m 511.11473,-39.854249 a 289.97623,259.05445 0 0 1 10.41623,63.457622 m 0,0 a 289.97623,259.05445 0 0 1 0.0669,5.568134 v 0 A 289.97623,259.05445 0 0 1 475.52151,169.28756" />
      <path
         id="path1644"
         style="fill:none;stroke:#ff0000;stroke-width:3.57711;stroke-miterlimit:4;stroke-dasharray:none"
         d="M -16.001637,163.97442 A 289.97623,259.05445 0 0 1 -58.354454,29.171507 289.97623,259.05445 0 0 1 -45.848164,-46.086939"
         transform="scale(0.26458333)" />
      <path
         style="fill:none;stroke:#ff0000;stroke-width:1.05389px;stroke-linecap:butt;stroke-linejoin:miter;stroke-opacity:1"
         d="m 33.515786,-56.168432 c 23.52498,-6.879412 37.604011,-7.228907 58.096376,0.911039"
         id="path1767"
         sodipodi:nodetypes="cc" />
    </g>
    <g
       id="g24079">
      <path
         style="fill:none;stroke:#ffff00;stroke-width:0.264583px;stroke-linecap:butt;stroke-linejoin:miter;stroke-opacity:1"
         d="m 70.771532,139.80421 c 11.824238,-0.0869 24.691789,-10.86786 28.517276,-19.47522"
         id="path2387"
         sodipodi:nodetypes="cc" />
      <path
         style="display:inline;fill:none;stroke:#ffff00;stroke-width:0.227635px;stroke-linecap:butt;stroke-linejoin:miter;stroke-opacity:1"
         d="m 70.539139,132.86503 c 10.173017,-0.0748 21.243651,-9.35019 24.53492,-16.75556"
         id="path2387-0"
         sodipodi:nodetypes="cc" />
      <text
         xml:space="preserve"
         style="font-style:normal;font-variant:normal;font-weight:normal;font-stretch:normal;font-size:6.35px;line-height:1.25;font-family:Courier;-inkscape-font-specification:'Courier, Normal';font-variant-ligatures:normal;font-variant-caps:normal;font-variant-numeric:normal;font-variant-east-asian:normal;fill:none;fill-opacity:1;stroke:#008000;stroke-width:0.264583"
         id="text7228"><textPath
           xlink:href="#path2387"
           id="textPath23960"
           style="font-style:normal;font-variant:normal;font-weight:normal;font-stretch:normal;font-size:5.64444px;font-family:Courier;-inkscape-font-specification:'Courier, Normal';font-variant-ligatures:normal;font-variant-caps:normal;font-variant-numeric:normal;font-variant-east-asian:normal">2021-09-25</textPath></text>
      <text
         xml:space="preserve"
         style="font-style:normal;font-variant:normal;font-weight:normal;font-stretch:normal;font-size:6.35px;line-height:1.25;font-family:Courier;-inkscape-font-specification:'Courier, Normal';font-variant-ligatures:normal;font-variant-caps:normal;font-variant-numeric:normal;font-variant-east-asian:normal;display:inline;fill:none;fill-opacity:1;stroke:#008000;stroke-width:0.264583"
         id="text7228-6"><textPath
           xlink:href="#path2387-0"
           id="textPath23957"
           style="font-style:normal;font-variant:normal;font-weight:normal;font-stretch:normal;font-size:7.76111px;font-family:Courier;-inkscape-font-specification:'Courier, Normal';font-variant-ligatures:normal;font-variant-caps:normal;font-variant-numeric:normal;font-variant-east-asian:normal">Orgue</textPath></text>
    </g>
  </g>
</svg>
