<?xml version="1.0" encoding="UTF-8" standalone="no"?>
<!-- Created with Inkscape (http://www.inkscape.org/) -->

<svg
   width="210mm"
   height="297mm"
   viewBox="0 0 210 297"
   version="1.1"
   id="svg5"
   inkscape:version="1.1 (c68e22c387, 2021-05-23)"
   sodipodi:docname="animals4.svg"
   xmlns:inkscape="http://www.inkscape.org/namespaces/inkscape"
   xmlns:sodipodi="http://sodipodi.sourceforge.net/DTD/sodipodi-0.dtd"
   xmlns:xlink="http://www.w3.org/1999/xlink"
   xmlns="http://www.w3.org/2000/svg"
   xmlns:svg="http://www.w3.org/2000/svg">
  <sodipodi:namedview
     id="namedview7"
     pagecolor="#ffffff"
     bordercolor="#666666"
     borderopacity="1.0"
     inkscape:pageshadow="2"
     inkscape:pageopacity="0.0"
     inkscape:pagecheckerboard="0"
     inkscape:document-units="mm"
     showgrid="false"
     inkscape:zoom="0.76435185"
     inkscape:cx="-43.173834"
     inkscape:cy="853.66445"
     inkscape:window-width="1920"
     inkscape:window-height="1017"
     inkscape:window-x="-8"
     inkscape:window-y="-8"
     inkscape:window-maximized="1"
     inkscape:current-layer="layer1" />
  <defs
     id="defs2" />
  <g
     inkscape:label="Layer 1"
     inkscape:groupmode="layer"
     id="layer1">
    <g
       id="g9293">
      <path
         id="path917"
         style="fill:none;stroke:#000000;stroke-width:0.999999px;stroke-linecap:butt;stroke-linejoin:miter;stroke-opacity:1"
         d="m 405.45365,176.89229 c 13.35159,18.67773 10.84422,40.50771 10.84422,40.50771 -37.00425,9.25106 -56.43148,18.50213 -70.30808,48.10553 -13.8766,29.60341 -10.17617,31.45362 -27.75319,3.70043 -17.57702,-27.75319 -28.67831,-32.37874 -60.13192,-39.77958 v 0 c 8.2672,-20.668 15.16626,-34.03924 22.96132,-43.96277"
         transform="scale(0.26458333)" />
      <path
         id="path2963"
         style="fill:none;stroke:#ff0000;stroke-width:0.999999px;stroke-linecap:butt;stroke-linejoin:miter;stroke-opacity:1"
         d="m 373.2753,153.79623 c 5.83217,2.22183 11.83256,5.34361 18.0447,9.48504 6.02684,4.0179 10.62716,8.70575 14.13365,13.61102"
         transform="scale(0.26458333)" />
      <path
         id="path2961"
         style="fill:none;stroke:#000000;stroke-width:0.999999px;stroke-linecap:butt;stroke-linejoin:miter;stroke-opacity:1"
         d="m 320.0325,156.64005 c 16.96433,-7.76042 34.20754,-10.09554 53.2428,-2.84382"
         transform="scale(0.26458333)" />
      <path
         id="path2747"
         style="fill:none;stroke:#ff0000;stroke-width:0.999999px;stroke-linecap:butt;stroke-linejoin:miter;stroke-opacity:1"
         d="m 281.066,185.46361 c 7.90586,-10.06458 16.73338,-16.58273 28.84464,-23.56999 3.37086,-1.94473 6.74082,-3.7069 10.12186,-5.25357"
         transform="scale(0.26458333)" />
      <path
         style="fill:none;stroke:#ff0000;stroke-width:0.264583px;stroke-linecap:butt;stroke-linejoin:miter;stroke-opacity:1"
         d="m 74.409389,51.401223 c 6.119193,1.958141 11.259317,8.811638 12.238387,15.1756"
         id="path919" />
      <path
         style="fill:none;stroke:#ff0000;stroke-width:0.264583px;stroke-linecap:butt;stroke-linejoin:miter;stroke-opacity:1"
         d="M 104.88297,48.586395 C 97.539941,52.747445 93.256504,59.233791 91.787899,65.108216"
         id="path921"
         sodipodi:nodetypes="cc" />
      <path
         style="fill:none;stroke:#ff0000;stroke-width:0.264583px;stroke-linecap:butt;stroke-linejoin:miter;stroke-opacity:1"
         d="m 78.570441,60.212861 c 1.958141,2.692445 3.671517,-0.734304 3.671517,-0.734304"
         id="path923" />
      <path
         style="fill:none;stroke:#ff0000;stroke-width:0.264583px;stroke-linecap:butt;stroke-linejoin:miter;stroke-opacity:1"
         d="m 98.396627,56.541346 c 1.468607,2.937211 2.447673,1.223839 4.161053,-0.734303"
         id="path925" />
      <path
         style="fill:none;stroke:#000000;stroke-width:0.264583px;stroke-linecap:butt;stroke-linejoin:miter;stroke-opacity:1"
         d="m 96.928021,63.150075 c 1.223838,18.112811 0.979072,41.855285 -0.489535,47.484935 5.874424,3.42675 2.937213,5.38489 -5.140122,5.38489 -8.077335,0 -30.378347,6.27488 -41.120979,-0.24476 -10.850651,-6.58519 -13.951761,-15.1756 -11.993619,-27.658756 1.958142,-12.483155 3.671516,-18.847116 1.958142,-22.273864 -1.713374,-3.426748 0.489536,-3.181981 5.38489,-1.958142 4.895355,1.223839 12.727922,8.566871 9.790709,19.091883 -2.937212,10.525013 -4.635739,19.853339 -1.958141,24.476769 2.356367,4.06876 4.650586,5.87443 4.405819,0 -0.244768,-5.87442 2.339104,-17.022074 5.00904,-23.04761 2.647903,-5.975812 7.001973,-15.081854 14.706007,-20.437051"
         id="path927"
         sodipodi:nodetypes="ccsssssssssc" />
      <path
         style="fill:none;stroke:#000000;stroke-width:0.264583px;stroke-linecap:butt;stroke-linejoin:miter;stroke-opacity:1"
         d="m 98.757629,40.695708 c 8.322101,-6.363959 12.813861,-14.998363 11.877381,-2.511941 -0.36715,4.895352 -1.54029,6.43565 -3.37605,8.63856"
         id="path929"
         sodipodi:nodetypes="csc" />
      <path
         style="fill:none;stroke:#000000;stroke-width:0.264583px;stroke-linecap:butt;stroke-linejoin:miter;stroke-opacity:1"
         d="m 74.366119,49.177316 c 0,-7.465417 -1.562782,-18.759042 4.204322,-15.154601 4.895353,3.059596 6.155038,7.580375 6.155038,7.580375"
         id="path931"
         sodipodi:nodetypes="csc" />
      <path
         style="fill:none;stroke:#ff0000;stroke-width:0.264583px;stroke-linecap:butt;stroke-linejoin:miter;stroke-opacity:1"
         d="m 85.802884,73.298076 c 1.774037,-0.649039 3.374999,-0.389422 3.85096,-0.216345"
         id="path3097" />
      <path
         style="fill:none;stroke:#ff0000;stroke-width:0.264583px;stroke-linecap:butt;stroke-linejoin:miter;stroke-opacity:1"
         d="m 97.658652,80.39423 c -5.495192,-0.08654 -10.514422,2.8125 -13.716347,6.879807 -3.20874,4.075965 -2.293268,3.850962 0.735579,5.451924 3.028847,1.600962 6.879807,6.274038 6.66346,12.591349 -0.216345,6.3173 0.951926,4.75962 4.067309,5.27884"
         id="path3132"
         sodipodi:nodetypes="csssc" />
      <path
         style="fill:none;stroke:#ff0000;stroke-width:0.264583px;stroke-linecap:butt;stroke-linejoin:miter;stroke-opacity:1"
         d="m 40.932692,77.971154 1.730769,-4.06731 1.557692,6.317308 1.557692,-4.759616 2.85577,6.403848 1.644229,-9.778846 2.769233,3.115384 -0.08654,-5.105768"
         id="path4478" />
    </g>
    <g
       id="g9277">
      <circle
         style="fill:none;stroke:#000000;stroke-width:0.264583;stroke-linecap:round;stroke-linejoin:round"
         id="path5630-3"
         cx="42.650776"
         cy="177.27304"
         r="2" />
      <circle
         style="fill:none;stroke:#000000;stroke-width:0.264583;stroke-linecap:round;stroke-linejoin:round"
         id="path5630-3-0"
         cx="50.972878"
         cy="174.94774"
         r="2" />
      <circle
         style="fill:none;stroke:#000000;stroke-width:0.264583;stroke-linecap:round;stroke-linejoin:round"
         id="path5630-3-3"
         cx="35.736088"
         cy="182.22957"
         r="2" />
      <circle
         style="fill:none;stroke:#000000;stroke-width:0.264583;stroke-linecap:round;stroke-linejoin:round"
         id="path5630-3-9"
         cx="29.922855"
         cy="188.40997"
         r="2" />
      <circle
         style="fill:none;stroke:#000000;stroke-width:0.264583;stroke-linecap:round;stroke-linejoin:round"
         id="path5630-3-00"
         cx="41.120979"
         cy="186.513"
         r="2" />
      <circle
         style="fill:none;stroke:#000000;stroke-width:0.264583;stroke-linecap:round;stroke-linejoin:round"
         id="path5630-3-38"
         cx="47.852093"
         cy="182.96387"
         r="2" />
      <circle
         style="fill:none;stroke:#000000;stroke-width:0.264583;stroke-linecap:round;stroke-linejoin:round"
         id="path5630-3-4"
         cx="55.256317"
         cy="181.2505"
         r="2" />
      <circle
         style="fill:none;stroke:#000000;stroke-width:0.264583;stroke-linecap:round;stroke-linejoin:round"
         id="path5630-3-2"
         cx="59.845711"
         cy="176.11038"
         r="2" />
      <path
         style="fill:none;stroke:#000000;stroke-width:0.264583px;stroke-linecap:butt;stroke-linejoin:miter;stroke-opacity:1"
         d="m 75.374999,180.69231 c 5.192308,-3.20193 8.653846,-4.67308 11.942307,-4.06731 3.288462,0.60577 1.990384,0.60577 2.942307,-1.47116 0.865356,-1.88806 2.361886,-2.74823 3.894233,-2.33653 1.607586,0.43191 3.028844,2.42307 2.942307,4.24038 -0.08654,1.81731 -1.557692,2.59615 1.125,3.54808 2.682697,0.95192 4.759617,2.94231 6.403847,4.24038 1.64423,1.29808 2.68269,2.50962 6.14423,3.20192 3.46154,0.69231 2.25,2.33654 1.21154,4.15385 -1.03846,1.81731 -5.53846,6.66346 -10.29808,9.77885 -4.759614,3.11538 -9.259613,4.75961 -15.576921,5.27884 -6.317308,0.51923 -13.5,-3.28846 -15.144231,-8.65384 -1.64423,-5.36539 -1.038461,-8.39423 -0.778847,-9.69231"
         id="path4659"
         sodipodi:nodetypes="csssssssssssc" />
      <path
         style="fill:none;stroke:#ff0000;stroke-width:0.264583px;stroke-linecap:butt;stroke-linejoin:miter;stroke-opacity:1"
         d="m 77.884614,179.74038 c 4.326925,-0.25961 5.971154,2.07693 8.740386,4.24039 2.76923,2.16346 6.403846,6.14423 12.028845,7.00961 5.624995,0.86539 7.442305,1.47116 3.028845,2.42308 -4.41346,0.95192 -16.052839,1.52404 -19.730768,0.95192 -3.89423,-0.60577 -7.528847,-1.99038 -9.519231,-5.19231"
         id="path4661"
         sodipodi:nodetypes="cssssc" />
      <path
         style="fill:none;stroke:#ff0000;stroke-width:0.264583px;stroke-linecap:butt;stroke-linejoin:miter;stroke-opacity:1"
         d="m 89.707372,177.76256 c 3.549132,2.20291 3.487941,4.77297 9.484749,7.52661 5.996809,2.75364 10.525009,3.97748 11.993619,3.7939 0,1.22384 0.18358,1.10146 0.73431,2.20291"
         id="path5475" />
      <circle
         style="opacity:1;fill:none;stroke:#000000;stroke-width:0.264583;stroke-linecap:round;stroke-linejoin:round"
         id="path5630"
         cx="84.597839"
         cy="189.60321"
         r="2" />
      <path
         style="fill:none;stroke:#ff0000;stroke-width:0.264583px;stroke-linecap:butt;stroke-linejoin:miter;stroke-opacity:1"
         d="m 91.787899,199.85285 c 1.162646,2.87602 4.099859,1.71337 3.549132,-0.91788"
         id="path5915" />
      <path
         style="fill:none;stroke:#000000;stroke-width:0.264583px;stroke-linecap:butt;stroke-linejoin:miter;stroke-opacity:1"
         d="m 77.713754,205.5437 c -5.017738,1.16265 -6.034246,0.42472 -4.528203,2.63125 2.631253,3.85509 -1.482254,8.13726 -5.813235,1.95815 -2.331036,-3.32575 -3.059596,-1.591 -2.508869,0.12238 0.550728,1.71337 -1.73018,8.64073 -7.526607,0.48953 -1.958143,-2.75363 -3.243172,-1.65218 -6.058,-1.34622 -2.814828,0.30596 -7.771376,0.7955 -10.402628,0.67311 -2.631255,-0.12238 -2.216133,0.95263 -1.529798,2.3253 1.285028,2.57006 -2.29758,6.86988 -6.669922,0.97907 -4.610642,-6.21187 -6.608729,-5.38489 -5.507274,-2.08052 1.101455,3.30436 -3.683777,7.71493 -6.814576,1.35236 -2.069924,-4.2066 -0.886335,-7.14278 -3.54966,-6.53883 -4.945495,1.12146 -5.453675,-9.63471 0.917879,-7.5878 1.858557,0.59707 1.980941,-0.13723 3.327164,-4.29828 1.346222,-4.16105 5.471427,-12.603 13.303996,-17.68193 7.832566,-5.07893 18.352484,-6.7644 28.0574,-3.3804 9.083427,3.16729 9.795058,6.31507 10.712937,4.66288 0.917879,-1.65218 4.650589,-5.07893 5.813234,0.7955"
         id="path5950"
         sodipodi:nodetypes="cssssssssssssssssc" />
    </g>
    <path
       style="fill:none;stroke:#ffff00;stroke-width:0.264583px;stroke-linecap:butt;stroke-linejoin:miter;stroke-opacity:1"
       d="M 65.950056,114.86055 C 66.475437,102.14598 70.501804,83.034159 80.784595,70.374325"
       id="path9328"
       sodipodi:nodetypes="cc" />
    <text
       xml:space="preserve"
       style="font-style:normal;font-weight:normal;font-size:10.5833px;line-height:1.25;font-family:sans-serif;fill:none;fill-opacity:1;stroke:#00ff00;stroke-width:0.264583"
       id="text10311"><textPath
         xlink:href="#path9328"
         id="textPath14995"><tspan
           id="tspan10309"
           style="fill:none;stroke:#00ff00;stroke-width:0.264583"><tspan
             style="font-size:6.35px;fill:none;stroke:#00ff00"
             id="tspan13107">Esther </tspan><tspan
             style="font-size:4.23333px;fill:none;stroke:#00ff00"
             id="tspan10819">2021-09-10</tspan></tspan></textPath></text>
    <path
       style="fill:none;stroke:#ff0000;stroke-width:0.264583px;stroke-linecap:butt;stroke-linejoin:miter;stroke-opacity:1"
       d="m 66.332054,207.8078 c 3.549132,-0.24477 5.874425,-0.97907 5.874425,-0.97907"
       id="path15033" />
    <path
       style="fill:none;stroke:#ff0000;stroke-width:0.264583px;stroke-linecap:butt;stroke-linejoin:miter;stroke-opacity:1"
       d="m 29.984046,209.64356 c 4.650587,0.97907 8.199721,0.85669 8.199721,0.85669"
       id="path15101" />
    <path
       style="fill:none;stroke:#ff0000;stroke-width:0.264583px;stroke-linecap:butt;stroke-linejoin:miter;stroke-opacity:1"
       d="m 18.429271,205.95592 c 0.04635,-5.35156 0.942844,-7.01146 0.97907,-6.7941"
       id="path15136"
       sodipodi:nodetypes="cc" />
    <path
       style="fill:none;stroke:#ffff00;stroke-width:0.264583px;stroke-linecap:butt;stroke-linejoin:miter;stroke-opacity:1"
       d="m 20.942307,205.09615 c 19.471156,3.98077 30.461538,3.46154 50.711537,-0.86542"
       id="path24867"
       sodipodi:nodetypes="cc" />
    <text
       xml:space="preserve"
       style="font-style:normal;font-weight:normal;font-size:10.5833px;line-height:1.25;font-family:sans-serif;fill:none;fill-opacity:1;stroke:#00ff00;stroke-width:0.264583"
       id="text26275"><textPath
         xlink:href="#path24867"
         id="textPath30857"><tspan
           id="tspan26273"
           style="fill:none;stroke:#00ff00;stroke-width:0.264583"><tspan
             style="font-size:6.35px;fill:none;stroke:#00ff00"
             id="tspan27465">Esther </tspan><tspan
             style="font-size:4.23333px;fill:none;stroke:#00ff00"
             id="tspan28957">2021-09-10</tspan></tspan></textPath></text>
  </g>
</svg>
