<?xml version="1.0" encoding="UTF-8" standalone="no"?>
<svg
   id="svg_elnt"
   width="100mm"
   height="100mm"
   viewBox="-50 -50 100 100"
   xmlns="http://www.w3.org/2000/svg"
   xmlns:svg="http://www.w3.org/2000/svg"
   xmlns:inkscape="http://www.inkscape.org/namespaces/inkscape"
   xmlns:sodipodi="http://sodipodi.sourceforge.net/DTD/sodipodi-0.dtd"
   >

<style
     type="text/css"
     id="style2">
svg {
  stroke: black;
  stroke-width: 0.5;
  stroke-linecap: round;
  stroke-linejoin: round;
  fill: none;
}

.construct {
  stroke: lightgrey;
  stroke-width: 0.2;  
}

.keep {
  stroke: black;
  stroke-width: 0.5;  
}

.cut {
  stroke: black;
  stroke-width: 1;  
}

.engrave {
  stroke: brown;
  stroke-width: 1;  
}

</style>
  <g
     id="keep"
     class="keep"
     inkscape:label="Keep"
     inkscape:groupmode="layer"
     style="display:inline">
    <path
       d="m -10,-34.641018 h 5 l 2.5,4.330128 m 30,8.660256 4.999998,8.660251 M 25,-17.320509 27.5,-21.650634 25,-25.980763 m 9.999998,17.3205087 -2.5,-4.3301287 M 27.5,21.650634 32.499998,12.99038 m -4.999998,0 h 4.999998 l 2.5,-4.3301258 M 25,25.980763 27.5,21.650634 m -24.9999998,8.660254 2.5000002,4.330129 h 4.9999979 m -19.9999993,0 5.0000004,-3e-6 M -27.5,21.650634 -25,25.980763 m -10,-17.3205088 2.5,4.3301258 5,8.660254 2.5,-4.330126 m -7.5,-30.310891 h 5 m 2.5,-12.99038 -2.500001,4.330129 -4.999999,8.660251 -2.5,4.3301287 m 40.0000004,-25.9807607 5.0000006,-3e-6 m -32.500002,21.650637 -5,-8.660254 m -2.500001,12.990383 5.000001,-8.660254 M -4.999999,-34.641015 H 5 M -1e-6,-25.980761 5,-34.641015 M -7.499999,-30.31089 H 2.5 v 0 m -22.5,4.330127 h 9.999999 m 2.5000001,-4.330129 h -9.9999981 m 9.9999981,8.660254 -5.0000001,-8.660254 m -2.500001,12.990383 5.000001,-8.660254 M -22.5,-21.650638 h 9.999999 v 0 M -22.5,-30.310892 l 5.000001,8.660254 m 2.499997,-12.99038 L -20,-25.980763 m 0,8.660254 h 9.999999 l 5.0000004,-8.660254 -5.0000004,-8.660255 H -20 l -5,8.660255 5,8.660254 m 15.000003,1e-6 h 9.999999 m 2.5000001,-4.330129 H -2.499996 m 9.9999981,8.660254 -5.0000001,-8.660254 M 1e-6,-8.660254 5.000002,-17.320508 m -12.499999,4.330125 h 9.999999 v 0 m -9.999999,-8.660254 5.000001,8.660254 M 1e-6,-25.980763 l -4.999998,8.660255 m 0,8.660254 h 9.999999 l 5,-8.660254 -5,-8.660255 h -9.999999 l -5,8.660255 5,8.660254 m -15.000004,0 h 9.999999 m 2.5000001,-4.330129 H -17.5 m 9.9999981,8.660254 -5.0000001,-8.660254 M -15.000003,0 l 5.000001,-8.660254 m -12.499999,4.330125 h 9.999999 v 0 m -9.999999,-8.660254 5.000001,8.660254 m 2.499997,-12.99038 -4.999998,8.660255 m 0,8.660254 h 9.999999 l 5.0000004,-8.660254 -5.0000004,-8.660255 h -9.999999 l -5,8.660255 5,8.660254 m 30.000003,-25.980763 h 9.999999 m 2.5,-4.330129 h -9.999998 m 9.999998,8.660254 -5,-8.660254 M 15,-17.320509 l 5.000001,-8.660254 m -12.499999,4.330125 h 9.999999 v 0 m -9.999999,-8.660254 5.000001,8.660254 M 15,-34.641018 l -4.999998,8.660255 m 0,8.660254 h 9.999999 l 5,-8.660254 -5,-8.660255 h -9.999999 l -5,8.660255 5,8.660254 m 12.499999,4.330127 H 32.5 v 0 m -9.999999,-8.660254 5.000001,8.660254 m -17.500001,4.33013 H 20 m 2.5,-4.330129 H 12.500002 M 22.5,-4.330127 l -5,-8.660254 M 14.999999,2e-6 20,-8.660252 M 7.500001,-4.330127 H 17.5 v 0 m -9.999999,-8.660254 5.000001,8.660254 m 2.499997,-12.99038 -4.999998,8.660255 m 0,8.660254 H 20 l 5,-8.660254 -5,-8.660255 h -9.999999 l -5,8.660255 5,8.660254 m -15,-2e-6 H 5 M 7.5000001,-4.330129 H -2.499998 M 7.5000001,4.330125 2.5,-4.330129 M -1e-6,8.660254 5,0 M -7.499999,4.330125 H 2.5 v 0 m -9.999999,-8.660254 5.000001,8.660254 M -1e-6,-8.660255 -4.999999,0 m 0,8.660254 H 5 L 10,0 5,-8.660255 h -9.999999 l -5,8.660255 5,8.660254 m -15,0 H -10 M -7.4999999,4.330125 H -17.499998 M -7.4999999,12.990379 -12.5,4.330125 M -15.000001,17.320508 -10,8.660254 m -12.499999,4.330125 H -12.5 v 0 m -9.999999,-8.660254 5.000001,8.660254 M -15.000001,-1e-6 -19.999999,8.660254 m 0,8.660254 H -10 L -4.9999996,8.660254 -10,-1e-6 h -9.999999 l -5,8.660255 5,8.660254 M -35,1e-6 h 9.999999 m 2.5,-4.330129 h -9.999998 m 9.999998,8.660254 -5,-8.660254 M -30.000002,8.660255 -25.000001,1e-6 M -37.5,4.330126 h 9.999999 v 0 M -37.5,-4.330128 -32.499999,4.330126 M -30.000002,-8.660254 -35,1e-6 m 0,8.660254 h 9.999999 l 5,-8.660254 -5,-8.660255 H -35 l -5,8.660255 5,8.660254 m 12.499999,4.330126 h -9.999998 m 9.999998,8.660254 -5,-8.660254 M -5,34.641016 H 4.999999 M 7.4999991,30.310887 H -2.499999 M -2e-6,25.980761 -5,34.641016 M 22.499999,12.990381 27.5,21.650635 M 29.999997,8.6602552 24.999999,17.32051 M 25.000001,1e-6 H 35 m 2.5,-4.330129 H 27.500002 M 37.5,4.330126 32.5,-4.330128 M 29.999999,8.660255 35,1e-6 M 22.500001,4.330126 H 32.5 v 0 m -9.999999,-8.660254 5.000001,8.660254 M 29.999999,-8.660254 25.000001,1e-6 m 0,8.660254 H 35 L 40,1e-6 35,-8.660254 h -9.999999 l -5,8.660255 5,8.660254 m -14.999999,0 h 9.999999 m 2.5,-4.330129 h -9.999998 m 9.999998,8.660254 -5,-8.660254 M 15,17.320509 20.000001,8.660255 M 7.500002,12.99038 h 9.999999 v 0 M 7.500002,4.330126 12.500003,12.99038 M 15,0 10.000002,8.660255 m 0,8.660254 h 9.999999 l 5,-8.660254 -5,-8.660255 h -9.999999 l -5,8.660255 5,8.660254 m -1e-6,8.660254 H 20 m 2.5,-4.330129 H 12.500002 M 22.5,30.310888 17.5,21.650634 M 14.999999,34.641017 20,25.980763 M 7.500001,30.310888 H 17.5 v 0 m -9.999999,-8.660254 5.000001,8.660254 m 2.499997,-12.99038 -4.999998,8.660255 m 0,8.660254 H 20 l 5,-8.660254 -5,-8.660255 h -9.999999 l -5,8.660255 5,8.660254 M -5.000001,17.32051 H 4.999998 M 7.4999981,12.990381 H -2.5 M 7.4999981,21.650635 2.499998,12.990381 M -3e-6,25.980764 4.999998,17.32051 m -12.499999,4.330125 h 9.999999 v 0 M -7.500001,12.990381 -2.5,21.650635 M -3e-6,8.6602548 -5.000001,17.32051 m 0,8.660254 H 4.999998 L 9.9999984,17.32051 4.999998,8.6602548 h -9.999999 l -5,8.6602552 5,8.660254 M -20,25.980763 h 9.999999 m 2.5000001,-4.330129 h -9.9999981 m 9.9999981,8.660254 -5.0000001,-8.660254 m -2.500001,12.990383 5.000001,-8.660254 M -22.5,30.310888 h 9.999999 v 0 M -22.5,21.650634 l 5.000001,8.660254 M -15.000002,17.320508 -20,25.980763 m 0,8.660254 h 9.999999 l 5.0000004,-8.660254 -5.0000004,-8.660255 H -20 l -5,8.660255 5,8.660254" />
  </g>
</svg>
