<?xml version="1.0" encoding="UTF-8" standalone="no"?>
<svg
   width="100mm"
   height="100mm"
   viewBox="-50 -50 100 100"
   version="1.1"
   xmlns="http://www.w3.org/2000/svg"
   xmlns:svg="http://www.w3.org/2000/svg"
   xmlns:inkscape="http://www.inkscape.org/namespaces/inkscape"
   >

  <style
     type="text/css"
     id="style2">
svg {
  stroke: black;
  stroke-width: 0.5;
  stroke-linecap: round;
  stroke-linejoin: round;
  fill: none;
}

.construct {
  stroke: lightgrey;
  stroke-width: 0.2;  
}

.keep {
  stroke: black;
  stroke-width: 0.5;  
}

.cut {
  stroke: black;
  stroke-width: 1;  
}

.engrave {
  stroke: brown;
  stroke-width: 1;  
}

</style>
  <g
     id="keep"
     class="keep"
     inkscape:label="Keep"
     inkscape:groupmode="layer">
    <path d="M -40,-8.8254595e-8 -37.5,-4.3301285 h 5 L -30,-8.8254595e-8 -32.5,4.3301257 h -5 L -40,-8.8254595e-8"/>
    <path d="m -37.5,-4.3301285 5,-8.6602545 h 15.000001 L -22.5,-4.3301285 h -10"/>
    <path d="m -35,-8.6602543 h 15"/>
    <path d="m -22.5,-4.3301285 7.499998,12.9903827 H -25 L -30,-8.8254595e-8"/>
    <path d="M -27.5,-4.3301285 -20,8.6602542"/>
    <path d="m -25,8.6602542 -5,8.6602538 -5,-8.6602538 2.5,-4.3301285"/>
    <path d="m -27.5,4.3301257 -5,8.6602543"/>
    <path d="M -37.5,4.3301257 -35,8.6602542"/>
    <path d="M -20,-8.8254595e-8 -12.500001,-12.990383 l -2.500001,-4.330126 -2.499997,4.330126"/>
    <path d="m -12.500001,-12.990383 2.5,4.3301287 -7.499998,12.99038"/>
    <path d="m -15.000002,-8.8254595e-8 h 5.000001 L -7.5000009,4.3301257 -10.000001,8.6602542 h -5.000001"/>
    <path d="M -10.000001,-8.6602543 H 5.0000004 L -8.8254602e-8,-8.8254595e-8 H -10.000001 L -2.5000003,12.99038 H 7.499998 L -8.8254595e-8,-8.8254595e-8"/>
    <path d="m -2.5000003,12.99038 -7.5000007,12.990383 -5.000001,-8.660255 5.000001,-8.6602538"/>
    <path d="M -15.000002,17.320508 H -30"/>
    <path d="M -5.0000006,-8.8254595e-8 2.5000002,12.99038 v 0"/>
    <path d="M 5.0000004,8.6602542 12.499999,-4.3301285 7.499998,-12.990383 5.0000004,-8.6602543"/>
    <path d="m 7.499998,4.3301257 h 5.000001 l 2.5,4.3301285 -2.5,4.3301258 H 7.499998 v 0"/>
    <path d="m 22.5,4.3301257 5,-8.6602542 H 12.499999"/>
    <path d="M 12.499999,4.3301257 H 22.5 l 7.499998,12.9903823 h -9.999999 l -5,-8.6602538"/>
    <path d="m 19.999999,17.320508 -7.5,12.99038 -5.000001,-8.660254 5.000001,-8.660254"/>
    <path d="M 27.5,12.99038 34.999998,-8.8254595e-8 29.999998,-8.6602543 27.5,-4.3301285"/>
    <path d="M -8.8254595e-8,-8.6602543 -7.5000009,-21.650634 h -9.9999981 l 2.499997,4.330125"/>
    <path d="M -2.5000003,-12.990383 -8.8254595e-8,-17.320509 H 5.0000004 l 2.4999976,4.330126"/>
    <path d="m -22.5,-12.990383 -2.5,-4.330126 2.5,-4.330125 h 5.000001"/>
    <path d="m -22.5,-21.650634 5.000001,-8.660255 h 14.9999987 l -5.0000006,8.660255"/>
    <path d="M -17.499999,-30.310889 -20,-34.641018 h 9.999999 l 2.5000001,4.330129"/>
    <path d="M -2.5000003,-30.310889 -8.8254595e-8,-34.641018 5.0000004,-25.980763 -8.8254595e-8,-17.320509"/>
    <path d="M 14.999999,-17.320509 22.5,-4.3301285"/>
    <path d="m 5.0000004,-17.320509 h 9.9999986 l 5,-8.660254 H 5.0000004"/>
    <path d="M 14.999999,-25.980763 9.9999983,-34.641018 H -8.8254595e-8"/>
    <path d="M 9.9999983,-34.641018 H 19.999999"/>
    <path d="M 19.999999,-25.980763 22.5,-30.310889 19.999999,-34.641018"/>
    <path d="m 12.499999,-30.310889 2.5,-4.330129"/>
    <path d="M 19.999999,-8.6602543 27.5,-21.650634 l -5,-8.660255"/>
    <path d="m 22.5,-12.990383 h 9.999998 L 27.5,-21.650634"/>
    <path d="m 27.5,-12.990383 2.499998,4.3301287"/>
    <path d="M 32.499998,-12.990383 39.999999,-8.8254595e-8 h -5.000001"/>
    <path d="m 29.999998,8.6602542 h 5 L 39.999999,-8.8254602e-8"/>
    <path d="m 34.999998,8.6602542 -5,8.6602538"/>
    <path d="M 7.499998,21.650634 H -7.5000009"/>
    <path d="M 14.999999,25.980763 H 25 l 4.999998,-8.660255"/>
    <path d="M -2.5000003,21.650634 -8.8254595e-8,25.980763 -2.5000003,30.310888 h -5.0000006 l -2.5000001,-4.330125"/>
    <path d="m 12.499999,30.310888 2.5,4.330129 h 5 L 22.5,30.310888 19.999999,25.980763"/>
    <path d="M 22.5,30.310886 25,25.980763"/>
    <path d="M -8.8254595e-8,25.980763 5.0000004,34.641017"/>
    <path d="m -2.5000003,30.310888 -2.5000003,4.330129 h 10.000001"/>
    <path d="m -7.5000009,30.310886 -9.9999981,2e-6 L -20,34.641017 h 14.9999994"/>
    <path d="M -17.499999,30.310886 -25,17.320508"/>
    <path d="m -22.5,21.650634 -2.5,4.330129 -5,-8.660255"/>
    <path d="m -25,25.980763 5,8.660254"/>
    <path d="m -32.5,-12.990383 5,-8.660251 2.5,4.330125"/>
    <path d="M -27.5,-21.650634 -20,-34.641018"/>     
    <path d="M -10.000001,-34.641018 H -8.8254602e-8"/>
    <path d="M -20,-25.980763 H -5.0000006"/>
    <path d="M 5.0000004,34.641017 H 14.999999"/>
    <path d="M 17.499999,-12.990383 25,-25.980763"/>
  </g>
</svg>
