<?xml version="1.0" encoding="UTF-8" standalone="no"?>
<!-- Created with Inkscape (http://www.inkscape.org/) -->

<svg
   sodipodi:docname="wooden-elephant-family-puzzle-cut.svg"
   inkscape:version="1.1 (c68e22c387, 2021-05-23)"
   id="svg5"
   version="1.1"
   viewBox="0 0 297 210"
   height="210mm"
   width="297mm"
   xmlns:inkscape="http://www.inkscape.org/namespaces/inkscape"
   xmlns:sodipodi="http://sodipodi.sourceforge.net/DTD/sodipodi-0.dtd"
   xmlns="http://www.w3.org/2000/svg"
   xmlns:svg="http://www.w3.org/2000/svg">
  <sodipodi:namedview
     id="namedview7"
     pagecolor="#ffffff"
     bordercolor="#666666"
     borderopacity="1.0"
     inkscape:pageshadow="2"
     inkscape:pageopacity="0.0"
     inkscape:pagecheckerboard="0"
     inkscape:document-units="mm"
     showgrid="false"
     inkscape:zoom="1.186692"
     inkscape:cx="555.74656"
     inkscape:cy="362.77315"
     inkscape:window-width="1920"
     inkscape:window-height="1017"
     inkscape:window-x="-8"
     inkscape:window-y="-8"
     inkscape:window-maximized="1"
     inkscape:current-layer="layer1" />
  <defs
     id="defs2" />
  <g
     inkscape:label="Cut"
     inkscape:groupmode="layer"
     id="layer1"
     style="display:inline">
    <path
       style="display:inline;fill:none;stroke:#000000;stroke-width:0.264583px;stroke-linecap:butt;stroke-linejoin:miter;stroke-opacity:1"
       d="m 105.54829,36.197636 c 14.34432,-9.942803 22.20524,-9.656097 38.442,-1.751362 14.54398,7.080624 16.45766,0.382737 31.95848,3.635998 15.50083,3.253259 20.85914,12.438933 25.45197,17.414505 4.59284,4.975574 0.38274,6.315151 -3.44462,7.654729 -3.82737,1.339577 -3.25326,4.018732 -9.75978,-0.574106 -6.50652,-4.592836 -15.47227,-9.061272 -26.24156,-5.573789 -10.25598,3.321255 -13.77616,10.933009 -21.21776,13.802621 -4.13406,1.594166 -8.61754,1.478832 -8.61754,1.478832 l 9.31552,3.056766"
       id="path3019"
       sodipodi:nodetypes="cssssssscc" />
    <path
       style="display:inline;fill:none;stroke:#000000;stroke-width:0.264583px;stroke-linecap:butt;stroke-linejoin:miter;stroke-opacity:1"
       d="M 106.67236,89.982493 C 94.178342,101.40557 75.226354,104.96024 58.481229,93.552206 42.000007,82.323966 38.593905,53.317527 51.801838,39.752625 65.009769,26.18772 74.704267,25.85532 87.613023,27.615605 103.31977,29.757432 114.05472,45.692308 114.05472,45.692308"
       id="path127"
       sodipodi:nodetypes="csssc" />
    <path
       style="display:inline;fill:none;stroke:#000000;stroke-width:0.264583px;stroke-linecap:butt;stroke-linejoin:miter;stroke-opacity:1"
       d="m 43.870756,68.305949 c -12.699135,6.9268 -18.600189,13.43457 -23.666572,21.934868 -4.777217,8.015138 -4.810281,11.352253 -4.810281,21.742463 0,10.3902 4.849593,17.15742 10.197795,24.24379 7.696445,10.19779 9.043323,13.6612 10.967434,19.24112 1.924111,5.57992 3.655811,14.62324 4.233045,16.93218 0.577234,2.30893 3.270989,1.7317 6.541977,1.7317 3.270991,0 17.317003,-0.19241 20.780401,0 3.463401,0.19241 4.617868,-1.34688 3.078578,-5.57993 -1.539287,-4.23304 -6.926799,-12.89154 -6.926799,-19.43352 0,-6.54198 2.693754,-16.93218 11.737078,-22.5121 9.043323,-5.57992 18.85629,-5.38751 28.476868,-4.81028 9.6206,0.57724 21.74251,6.54198 27.13002,12.1219 5.38751,5.57993 10.77502,16.73977 9.62056,23.08934 -1.15447,6.34956 -2.85235,8.83529 -5.16128,12.4911 -2.30894,3.65581 -1.57311,3.67143 3.42958,3.67143 5.00269,0 19.24111,-0.19241 23.28175,0"
       id="path4887"
       sodipodi:nodetypes="csssssssssssssssc" />
    <path
       style="display:inline;fill:none;stroke:#000000;stroke-width:0.264583px;stroke-linecap:butt;stroke-linejoin:miter;stroke-opacity:1"
       d="m 162.78091,173.17001 c 0,0 5.19509,-1.15447 5.96474,-6.15715 0.76964,-5.00269 2.50134,-13.27637 0,-26.16792 C 166.2443,127.9534 158.92729,117.67537 152.19829,108.32746 147.3327,101.5682 143.84117,95.451299 142.0005,90.818052 139.52193,84.579115 141.435,75.341828 141.435,75.341828"
       id="path4922"
       sodipodi:nodetypes="cssssc" />
    <path
       style="fill:none;stroke:#000000;stroke-width:0.264583px;stroke-linecap:butt;stroke-linejoin:miter;stroke-opacity:1"
       d="m 214.49222,135.84288 c 17.89423,4.23305 27.89961,-4.23304 32.13266,-9.04332 4.23304,-4.81028 9.81297,-12.31431 9.62056,-21.35765 -0.19242,-9.043355 -5.19511,-20.010789 -9.62056,-25.205888 -4.42546,-5.195102 -15.77771,-12.506724 -23.85898,-11.544668 -8.08127,0.962055 -18.27906,5.195099 -23.85898,11.159845 -5.57992,5.964745 -16.93218,15.392889 -21.35763,14.238422 -4.42546,-1.154467 -8.65851,-5.195099 -8.46609,-10.3902 0.19241,-5.195099 5.1951,-9.235734 10.00537,-9.043321 4.81028,0.19241 12.12191,3.655811 13.6612,5.195099 1.53928,1.53929 2.88616,2.116524 4.42545,0.577233 l 3.27099,-3.270988 c 1.53929,-1.53929 0.76964,-1.53929 -1.7317,-4.040634 -2.50135,-2.501345 -11.54138,-7.678812 -17.12459,-7.696446 -7.30377,-0.02307 -12.69914,2.308934 -17.317,6.157155 -4.61787,3.848225 -10.77503,9.428147 -11.73708,17.317003 -0.96206,7.888856 1.53929,12.891558 9.42814,24.821088 4.92459,7.44694 13.10605,17.99238 16.10678,26.99833 4.02555,12.08166 4.09639,21.48927 3.71157,28.80089 -0.38482,7.31162 -0.38482,11.73708 2.50135,11.92949 2.88616,0.19241 12.31431,0.19241 15.77771,0 8.29443,-0.1404 7.11921,-2.88616 11.54467,-7.88885 4.42545,-5.00269 10.96743,-10.96744 17.12459,-11.15985 6.15715,-0.19241 13.46878,2.69376 13.8536,7.69645 0.38482,5.00269 -0.96206,7.50403 -2.11652,9.62055 -1.15447,2.11652 2.11652,2.11652 6.15715,1.92411 4.04064,-0.19241 10.96744,0.19241 15.77771,0.38483 4.81028,0.19241 4.42546,-4.61787 4.42546,-7.11922 0,-2.50134 1.34688,-9.81296 3.27099,-14.23842 1.92411,-4.42545 6.9268,-10.3902 10.58261,-15.97012 3.65581,-5.57993 6.15716,-16.35495 3.4634,-23.08934 -2.69375,-6.73439 -8.46609,-14.04602 -14.43083,-17.12461 -5.96475,-3.0786 -13.66119,-3.0786 -13.66119,-3.0786"
       id="path6367"
       sodipodi:nodetypes="cssssssssssssssssssscsssssssssssc" />
    <path
       style="display:inline;fill:none;stroke:#000000;stroke-width:0.264583px;stroke-linecap:butt;stroke-linejoin:miter;stroke-opacity:1"
       d="m 107.28086,141.61674 c -3.63686,-4.95934 -3.85727,-6.50225 -2.53478,-9.80848 1.32249,-3.30622 3.41645,-3.41643 6.17165,-4.51851 2.75521,-1.10207 5.06958,-0.11021 7.16352,0.88166 2.09394,0.99187 10.80034,5.7308 13.55553,9.91869 2.75519,4.18788 7.41992,11.36556 6.28184,18.51487 -0.97778,6.14231 -3.63686,11.46159 -5.62059,13.99636 -1.98374,2.53478 -2.8654,1.98374 -3.30623,0.22042 -0.44083,-1.76332 -2.25939,-4.34424 -0.88166,-6.83287 2.38282,-4.30416 1.76266,-7.81767 0.32992,-11.78515 -1.4327,-3.96747 -6.17096,-6.72973 -9.6976,-6.2889 -3.52664,0.44083 -6.17164,4.40831 -4.18789,7.49412 1.98374,3.08581 5.17975,5.06955 7.71453,7.82474 2.53477,2.75519 4.62872,4.73892 5.28996,8.59618 0.66125,3.85727 0.55104,3.30624 -1.98373,3.52665 -2.53478,0.22042 -5.17976,0.11021 -8.7064,0.11021 -3.52665,0 -4.62873,-2.42457 -7.27373,-5.51038 -2.645,-3.08581 -4.51853,-7.16349 -11.020807,-7.71453 -6.502246,-0.55104 -8.15536,4.29809 -8.15536,6.83287 0,2.53477 0.220416,6.72266 -2.534775,7.05329 -2.755188,0.33062 -7.494113,0.1102 -10.139095,-0.11021 -2.644984,-0.22042 -4.077681,-3.41644 -4.959342,-7.1635 -0.88166,-3.74705 -5.289962,-8.37577 -6.171623,-14.5474 -0.881663,-6.17162 1.653112,-16.20051 6.39204,-20.71902 4.738925,-4.51851 12.122832,-6.83287 18.074042,-7.38391 5.951209,-0.55104 13.77597,0.33062 16.86179,0.88166 3.08583,0.55104 5.29,0.66125 3.41646,1.76332"
       id="path8955"
       sodipodi:nodetypes="csssssssssssssssssssssssssc" />
  </g>
  <g
     inkscape:groupmode="layer"
     id="layer3"
     inkscape:label="Engrave"
     style="display:inline">
    <path
       style="display:inline;fill:none;stroke:#000000;stroke-width:0.264583px;stroke-linecap:butt;stroke-linejoin:miter;stroke-opacity:1"
       d="m 194.0507,177.34768 c -0.2532,3.03834 -0.1266,4.05112 0.25319,5.3171"
       id="path8809" />
    <path
       style="display:inline;fill:none;stroke:#000000;stroke-width:0.264583px;stroke-linecap:butt;stroke-linejoin:miter;stroke-opacity:1"
       d="m 187.59423,176.84129 c -0.37979,3.79793 -0.2532,3.92452 0.1266,5.57029"
       id="path8807" />
    <path
       style="display:inline;fill:none;stroke:#000000;stroke-width:0.264583px;stroke-linecap:butt;stroke-linejoin:miter;stroke-opacity:1"
       d="m 246.46203,177.34768 c -0.37979,2.40535 -0.37979,4.30432 -0.1266,5.3171"
       id="path8811" />
    <path
       style="display:inline;fill:none;stroke:#000000;stroke-width:0.264583px;stroke-linecap:butt;stroke-linejoin:miter;stroke-opacity:1"
       d="m 252.53871,177.22108 c -0.63299,3.67133 -0.37979,3.79793 -0.2532,5.4437"
       id="path8813" />
    <path
       id="path2287-0"
       style="display:inline;fill:none;stroke:#000000;stroke-width:0.181264;stroke-opacity:1"
       d="m 196.62975,97.475754 c -0.75886,-2.4e-5 -1.37403,0.589688 -1.37391,1.31707 3e-4,0.7271 0.61534,1.316366 1.37391,1.316346 0.75857,3e-5 1.37362,-0.589242 1.37392,-1.316346 1.2e-4,-0.727386 -0.61505,-1.3171 -1.37392,-1.31707 z"
       sodipodi:nodetypes="ccccc" />
    <path
       id="path2287-0-2"
       style="display:inline;fill:none;stroke:#000000;stroke-width:0.181264;stroke-opacity:1"
       d="m 128.212,39.836117 a 1.3738642,1.3168698 0 0 0 -1.37391,1.31707 1.3738642,1.3168698 0 0 0 1.37391,1.31635 1.3738642,1.3168698 0 0 0 1.37392,-1.31635 1.3738642,1.3168698 0 0 0 -1.37392,-1.31707 z" />
    <path
       id="path9717"
       style="display:inline;fill:none;stroke:#000000;stroke-width:0.181264;stroke-opacity:1"
       d="m 120.06926,136.65976 c -0.75886,-2e-5 -1.37403,0.58969 -1.37391,1.31707 3e-4,0.7271 0.61534,1.31638 1.37391,1.31635 0.75857,3e-5 1.37362,-0.58924 1.37392,-1.31635 1.2e-4,-0.72738 -0.61505,-1.3171 -1.37392,-1.31707 z"
       sodipodi:nodetypes="ccccc" />
    <path
       style="fill:none;stroke:#000000;stroke-width:0.264583px;stroke-linecap:butt;stroke-linejoin:miter;stroke-opacity:1"
       d="m 124.03246,170.82175 c 0.66125,3.30623 0.11021,3.41643 0.22042,4.18789"
       id="path9809" />
    <path
       style="fill:none;stroke:#000000;stroke-width:0.264583px;stroke-linecap:butt;stroke-linejoin:miter;stroke-opacity:1"
       d="m 119.07312,171.04216 c 0.44083,1.76332 0.55104,2.42457 0.33062,3.41644"
       id="path9811" />
    <path
       style="fill:none;stroke:#000000;stroke-width:0.264583px;stroke-linecap:butt;stroke-linejoin:miter;stroke-opacity:1"
       d="m 84.908694,170.71154 c 1.212284,4.62872 0.661246,4.18789 0.55104,5.40017"
       id="path9813" />
    <path
       style="fill:none;stroke:#000000;stroke-width:0.264583px;stroke-linecap:butt;stroke-linejoin:miter;stroke-opacity:1"
       d="m 80.500392,170.82175 c 0.661244,2.75519 0.330623,3.52664 0,4.95934"
       id="path9815"
       sodipodi:nodetypes="cc" />
    <path
       style="fill:none;stroke:#000000;stroke-width:0.264583px;stroke-linecap:butt;stroke-linejoin:miter;stroke-opacity:1"
       d="m 150.48228,167.1849 c 1.10207,3.96747 0.33062,4.62871 -0.55104,7.38391"
       id="path9907"
       sodipodi:nodetypes="cc" />
    <path
       style="fill:none;stroke:#000000;stroke-width:0.264583px;stroke-linecap:butt;stroke-linejoin:miter;stroke-opacity:1"
       d="m 159.29889,166.74407 c 1.10207,3.85726 0.33062,6.28183 -0.33063,7.60432"
       id="path9909" />
    <path
       style="fill:none;stroke:#000000;stroke-width:0.264583px;stroke-linecap:butt;stroke-linejoin:miter;stroke-opacity:1"
       d="m 54.050573,168.06656 c 1.873528,4.18788 1.322491,5.62058 1.212284,7.2737"
       id="path10153" />
    <path
       style="fill:none;stroke:#000000;stroke-width:0.264583px;stroke-linecap:butt;stroke-linejoin:miter;stroke-opacity:1"
       d="m 62.86718,167.62573 c 1.542904,3.52664 1.322491,5.841 1.102074,7.60432"
       id="path10155" />
  </g>
</svg>
